<?xml version="1.0" encoding="UTF-8" standalone="no"?>
<!-- Created with Inkscape (http://www.inkscape.org/) -->

<svg
   xmlns:dc="http://purl.org/dc/elements/1.1/"
   xmlns:cc="http://creativecommons.org/ns#"
   xmlns:rdf="http://www.w3.org/1999/02/22-rdf-syntax-ns#"
   xmlns:svg="http://www.w3.org/2000/svg"
   xmlns="http://www.w3.org/2000/svg"
   xmlns:sodipodi="http://sodipodi.sourceforge.net/DTD/sodipodi-0.dtd"
   xmlns:inkscape="http://www.inkscape.org/namespaces/inkscape"
   width="195.2327mm"
   height="39.496815mm"
   viewBox="0 0 195.2327 39.496815"
   version="1.1"
   id="svg8"
   inkscape:version="0.92.5 (2060ec1f9f, 2020-04-08)"
   sodipodi:docname="simple-mobile-tools.svg"
   inkscape:export-xdpi="471"
   inkscape:export-ydpi="471">
  <defs
     id="defs2" />
  <sodipodi:namedview
     id="base"
     pagecolor="#ffffff"
     bordercolor="#666666"
     borderopacity="1.0"
     inkscape:pageopacity="0.0"
     inkscape:pageshadow="2"
     inkscape:zoom="1.979899"
     inkscape:cx="331.6456"
     inkscape:cy="61.689586"
     inkscape:document-units="mm"
     inkscape:current-layer="layer1"
     showgrid="false"
     inkscape:window-width="2560"
     inkscape:window-height="1349"
     inkscape:window-x="0"
     inkscape:window-y="0"
     inkscape:window-maximized="1"
     inkscape:pagecheckerboard="true"
     fit-margin-top="0"
     fit-margin-left="0"
     fit-margin-right="0"
     fit-margin-bottom="0" />
  <metadata
     id="metadata5">
    <rdf:RDF>
      <cc:Work
         rdf:about="">
        <dc:format>image/svg+xml</dc:format>
        <dc:type
           rdf:resource="http://purl.org/dc/dcmitype/StillImage" />
        <dc:title></dc:title>
      </cc:Work>
    </rdf:RDF>
  </metadata>
  <g
     inkscape:label="Layer 1"
     inkscape:groupmode="layer"
     id="layer1"
     transform="translate(-7.5153035,-249.98194)">
    <g
       aria-label="simplemobiletools"
       style="font-style:normal;font-variant:normal;font-weight:normal;font-stretch:normal;font-size:14.55233765px;line-height:1.25;font-family:'Museo Sans Rounded';-inkscape-font-specification:'Museo Sans Rounded';letter-spacing:0px;word-spacing:0px;fill:#000000;fill-opacity:1;stroke:none;stroke-width:0.36380842"
       id="text817">
      <path
         d="m 54.496056,272.68036 v -2.11037 h 0.802937 q 0.09948,0.84557 0.632401,1.29322 0.532923,0.44055 1.449549,0.44055 0.767409,0 1.17243,-0.26291 0.412127,-0.27001 0.412127,-0.76741 0,-0.45476 -0.262909,-0.70345 -0.255803,-0.2487 -1.001894,-0.43345 l -1.037423,-0.26291 q -1.172429,-0.29133 -1.698246,-0.83135 -0.525817,-0.54714 -0.525817,-1.47087 0,-1.22928 0.852676,-1.82615 0.852676,-0.60398 2.629084,-0.60398 0.66793,0 1.421127,0.11369 0.760303,0.10659 1.67693,0.34107 v 1.90431 h -0.802937 q -0.06395,-0.77451 -0.554239,-1.16532 -0.483183,-0.39081 -1.392704,-0.39081 -0.767409,0 -1.165324,0.2487 -0.39081,0.24159 -0.39081,0.71056 0,0.3837 0.22738,0.60398 0.22738,0.22027 0.817148,0.36949 l 1.030317,0.26291 q 1.485077,0.3766 2.053528,0.93084 0.568451,0.55424 0.568451,1.54192 0,1.27901 -0.916627,1.8901 -0.909521,0.60398 -2.835148,0.60398 -0.703458,0 -1.492183,-0.10659 -0.788725,-0.10658 -1.669824,-0.31975 z"
         style="fill:#f57c00;fill-opacity:1;stroke-width:0.36380842"
         id="path822"
         inkscape:connector-curvature="0" />
      <path
         d="m 63.34257,263.20855 q 0,-0.57556 0.397916,-0.96637 0.397915,-0.39791 0.973471,-0.39791 0.561345,0 0.952155,0.39791 0.397916,0.39081 0.397916,0.96637 0,0.56135 -0.397916,0.95926 -0.39081,0.39081 -0.952155,0.39081 -0.575556,0 -0.973471,-0.39081 -0.397916,-0.39081 -0.397916,-0.95926 z m 2.74988,8.8323 h 1.080057 v 0.85978 h -4.668402 v -0.85978 h 1.072951 v -5.83372 h -1.072951 v -0.85978 h 3.588345 z"
         style="fill:#f57c00;fill-opacity:1;stroke-width:0.36380842"
         id="path824"
         inkscape:connector-curvature="0" />
      <path
         d="m 76.367197,266.58373 q 0.525816,-0.7532 1.136901,-1.09427 0.611084,-0.34818 1.428232,-0.34818 1.300331,0 1.939838,0.73899 0.646613,0.73188 0.646613,2.21696 v 3.94362 h 1.080056 v 0.85978 h -4.497866 v -0.85978 h 0.902416 v -3.56702 q 0,-1.41403 -0.220275,-1.78352 -0.213169,-0.36949 -0.802937,-0.36949 -0.667929,0 -1.037422,0.51871 -0.369493,0.5116 -0.369493,1.46376 v 3.73756 h 0.902415 v 0.85978 H 73.15545 v -0.85978 h 0.902416 v -3.56702 q 0,-1.41403 -0.220275,-1.78352 -0.220275,-0.36949 -0.802937,-0.36949 -0.675035,0 -1.044528,0.51871 -0.369493,0.5116 -0.369493,1.46376 v 3.73756 h 0.902416 v 0.85978 h -4.490761 v -0.85978 h 1.072951 v -5.83372 h -1.072951 v -0.85978 h 3.588345 v 1.06584 q 0.44055,-0.66082 1.009,-0.96636 0.568451,-0.30555 1.350071,-0.30555 0.923732,0 1.499288,0.35528 0.575557,0.34818 0.888205,1.08717 z"
         style="fill:#f57c00;fill-opacity:1;stroke-width:0.36380842"
         id="path826"
         inkscape:connector-curvature="0" />
      <path
         d="m 86.862218,268.75094 v 0.7461 q 0,1.32164 0.333964,1.91141 0.341071,0.58977 1.094268,0.58977 0.774514,0 1.087162,-0.6253 0.319753,-0.62529 0.319753,-2.25248 0,-1.62719 -0.319753,-2.24538 -0.312648,-0.6253 -1.087162,-0.6253 -0.753197,0 -1.094268,0.58977 -0.333964,0.58977 -0.333964,1.91141 z m -2.515395,-2.54381 h -1.080056 v -0.85978 h 3.595451 v 0.95926 q 0.319753,-0.58977 0.859781,-0.874 0.540028,-0.29133 1.335859,-0.29133 1.612979,0 2.536712,1.06585 0.930838,1.05874 0.930838,2.91331 0,1.85457 -0.930838,2.92041 -0.923733,1.06585 -2.536712,1.06585 -0.795831,0 -1.335859,-0.28423 -0.540028,-0.29133 -0.859781,-0.8811 v 3.12648 h 1.165324 v 0.85978 h -4.760775 v -0.85978 h 1.080056 z"
         style="fill:#f57c00;fill-opacity:1;stroke-width:0.36380842"
         id="path828"
         inkscape:connector-curvature="0" />
      <path
         d="m 97.19381,272.04085 h 1.080056 v 0.85978 h -4.668401 v -0.85978 h 1.07295 v -9.34391 h -1.07295 v -0.85267 h 3.588345 z"
         style="fill:#f57c00;fill-opacity:1;stroke-width:0.36380842"
         id="path830"
         inkscape:connector-curvature="0" />
      <path
         d="m 104.46998,268.63725 q 0,-1.49218 -0.27712,-2.08905 -0.27712,-0.60398 -0.94505,-0.60398 -0.64661,0 -0.93084,0.58977 -0.27712,0.58976 -0.27712,1.97536 v 0.1279 z m 2.76409,0.84557 h -5.19422 v 0.0568 q 0,1.46376 0.44055,2.11748 0.44055,0.64661 1.42113,0.64661 0.81715,0 1.32165,-0.43344 0.5045,-0.43345 0.64661,-1.2577 h 1.17953 q -0.30554,1.28612 -1.21506,1.8901 -0.90952,0.60398 -2.54382,0.60398 -1.96115,0 -3.01279,-1.03032 -1.044523,-1.03742 -1.044523,-2.95594 0,-1.87589 1.072953,-2.92752 1.07295,-1.05164 2.98436,-1.05164 1.87589,0 2.87778,1.10848 1.0019,1.10137 1.06585,3.23306 z"
         style="fill:#f57c00;fill-opacity:1;stroke-width:0.36380842"
         id="path832"
         inkscape:connector-curvature="0" />
      <path
         d="m 116.7272,266.58373 q 0.52581,-0.7532 1.1369,-1.09427 0.61108,-0.34818 1.42823,-0.34818 1.30033,0 1.93984,0.73899 0.64661,0.73188 0.64661,2.21696 v 3.94362 h 1.08006 v 0.85978 h -4.49787 v -0.85978 h 0.90242 v -3.56702 q 0,-1.41403 -0.22028,-1.78352 -0.21317,-0.36949 -0.80293,-0.36949 -0.66793,0 -1.03743,0.51871 -0.36949,0.5116 -0.36949,1.46376 v 3.73756 h 0.90242 v 0.85978 h -4.32023 v -0.85978 h 0.90242 v -3.56702 q 0,-1.41403 -0.22028,-1.78352 -0.22027,-0.36949 -0.80294,-0.36949 -0.67503,0 -1.04452,0.51871 -0.3695,0.5116 -0.3695,1.46376 v 3.73756 h 0.90242 v 0.85978 h -4.49076 v -0.85978 h 1.07295 v -5.83372 h -1.07295 v -0.85978 h 3.58834 v 1.06584 q 0.44055,-0.66082 1.009,-0.96636 0.56845,-0.30555 1.35007,-0.30555 0.92374,0 1.49929,0.35528 0.57556,0.34818 0.88821,1.08717 z"
         style="fill:#424242;fill-opacity:1;stroke-width:0.36380842"
         id="path834"
         inkscape:connector-curvature="0" />
      <path
         d="m 128.15305,272.30376 q 0.79583,0 1.11558,-0.68214 0.32686,-0.68214 0.32686,-2.50118 0,-1.81904 -0.31975,-2.49408 -0.31975,-0.68214 -1.12269,-0.68214 -0.80294,0 -1.1298,0.68925 -0.32685,0.68214 -0.32685,2.48697 0,1.80483 0.32685,2.49408 0.32686,0.68924 1.1298,0.68924 z m 0,0.80294 q -1.99668,0 -3.13358,-1.05874 -1.1298,-1.06585 -1.1298,-2.92752 0,-1.86878 1.1298,-2.92042 1.1369,-1.05874 3.13358,-1.05874 2.00379,0 3.13358,1.05874 1.1298,1.05164 1.1298,2.92042 0,1.86167 -1.1369,2.92752 -1.1298,1.05874 -3.12648,1.05874 z"
         style="fill:#424242;fill-opacity:1;stroke-width:0.36380842"
         id="path836"
         inkscape:connector-curvature="0" />
      <path
         d="m 134.41312,272.04085 v -9.34391 h -1.08006 v -0.85267 h 3.59545 v 4.46234 q 0.31975,-0.58977 0.85978,-0.874 0.54003,-0.29133 1.33586,-0.29133 1.61298,0 2.53671,1.06585 0.93084,1.05874 0.93084,2.91331 0,1.85457 -0.93084,2.92041 -0.92373,1.06585 -2.53671,1.06585 -0.79583,0 -1.33586,-0.28423 -0.54003,-0.29133 -0.85978,-0.8811 v 0.95926 h -3.59545 v -0.85978 z m 2.51539,-2.54381 q 0,1.32164 0.33397,1.91141 0.34107,0.58977 1.09426,0.58977 0.77452,0 1.08717,-0.6253 0.31975,-0.62529 0.31975,-2.25248 0,-1.62719 -0.31975,-2.24538 -0.31265,-0.6253 -1.08717,-0.6253 -0.75319,0 -1.09426,0.58977 -0.33397,0.58977 -0.33397,1.91141 z"
         style="fill:#424242;fill-opacity:1;stroke-width:0.36380842"
         id="path838"
         inkscape:connector-curvature="0" />
      <path
         d="m 144.51023,263.20855 q 0,-0.57556 0.39791,-0.96637 0.39792,-0.39791 0.97347,-0.39791 0.56135,0 0.95216,0.39791 0.39791,0.39081 0.39791,0.96637 0,0.56135 -0.39791,0.95926 -0.39081,0.39081 -0.95216,0.39081 -0.57555,0 -0.97347,-0.39081 -0.39791,-0.39081 -0.39791,-0.95926 z m 2.74988,8.8323 h 1.08005 v 0.85978 h -4.6684 v -0.85978 h 1.07295 v -5.83372 h -1.07295 v -0.85978 h 3.58835 z"
         style="fill:#424242;fill-opacity:1;stroke-width:0.36380842"
         id="path840"
         inkscape:connector-curvature="0" />
      <path
         d="m 152.78829,272.04085 h 1.08005 v 0.85978 h -4.6684 v -0.85978 h 1.07295 v -9.34391 h -1.07295 v -0.85267 h 3.58835 z"
         style="fill:#424242;fill-opacity:1;stroke-width:0.36380842"
         id="path842"
         inkscape:connector-curvature="0" />
      <path
         d="m 160.06446,268.63725 q 0,-1.49218 -0.27712,-2.08905 -0.27712,-0.60398 -0.94505,-0.60398 -0.64661,0 -0.93084,0.58977 -0.27712,0.58976 -0.27712,1.97536 v 0.1279 z m 2.76409,0.84557 h -5.19422 v 0.0568 q 0,1.46376 0.44055,2.11748 0.44055,0.64661 1.42113,0.64661 0.81714,0 1.32164,-0.43344 0.5045,-0.43345 0.64662,-1.2577 h 1.17953 q -0.30554,1.28612 -1.21506,1.8901 -0.90952,0.60398 -2.54382,0.60398 -1.96115,0 -3.01279,-1.03032 -1.04452,-1.03742 -1.04452,-2.95594 0,-1.87589 1.07295,-2.92752 1.07295,-1.05164 2.98436,-1.05164 1.87589,0 2.87778,1.10848 1.0019,1.10137 1.06585,3.23306 z"
         style="fill:#424242;fill-opacity:1;stroke-width:0.36380842"
         id="path844"
         inkscape:connector-curvature="0" />
      <path
         d="m 164.93181,266.20713 h -1.09427 v -0.85978 h 1.09427 v -2.34486 h 2.5154 v 2.34486 h 2.09616 v 0.85978 h -2.09616 v 4.62577 q 0,0.98768 0.15632,1.22927 0.15632,0.24159 0.56845,0.24159 0.45476,0 0.67504,-0.30554 0.22027,-0.30554 0.23448,-0.94505 h 1.05874 q -0.064,1.1369 -0.62529,1.59877 -0.55424,0.45476 -1.91853,0.45476 -1.55613,0 -2.11037,-0.48318 -0.55424,-0.49029 -0.55424,-1.79062 z"
         style="fill:#f57c00;fill-opacity:1;stroke-width:0.36380842"
         id="path846"
         inkscape:connector-curvature="0" />
      <path
         d="m 175.07155,272.30376 q 0.79583,0 1.11559,-0.68214 0.32686,-0.68214 0.32686,-2.50118 0,-1.81904 -0.31976,-2.49408 -0.31975,-0.68214 -1.12269,-0.68214 -0.80293,0 -1.12979,0.68925 -0.32686,0.68214 -0.32686,2.48697 0,1.80483 0.32686,2.49408 0.32686,0.68924 1.12979,0.68924 z m 0,0.80294 q -1.99668,0 -3.13358,-1.05874 -1.1298,-1.06585 -1.1298,-2.92752 0,-1.86878 1.1298,-2.92042 1.1369,-1.05874 3.13358,-1.05874 2.00379,0 3.13359,1.05874 1.12979,1.05164 1.12979,2.92042 0,1.86167 -1.1369,2.92752 -1.12979,1.05874 -3.12648,1.05874 z"
         style="fill:#f57c00;fill-opacity:1;stroke-width:0.36380842"
         id="path848"
         inkscape:connector-curvature="0" />
      <path
         d="m 184.77785,272.30376 q 0.79583,0 1.11559,-0.68214 0.32686,-0.68214 0.32686,-2.50118 0,-1.81904 -0.31976,-2.49408 -0.31975,-0.68214 -1.12269,-0.68214 -0.80293,0 -1.12979,0.68925 -0.32686,0.68214 -0.32686,2.48697 0,1.80483 0.32686,2.49408 0.32686,0.68924 1.12979,0.68924 z m 0,0.80294 q -1.99668,0 -3.13358,-1.05874 -1.1298,-1.06585 -1.1298,-2.92752 0,-1.86878 1.1298,-2.92042 1.1369,-1.05874 3.13358,-1.05874 2.00379,0 3.13359,1.05874 1.12979,1.05164 1.12979,2.92042 0,1.86167 -1.1369,2.92752 -1.12979,1.05874 -3.12648,1.05874 z"
         style="fill:#f57c00;fill-opacity:1;stroke-width:0.36380842"
         id="path850"
         inkscape:connector-curvature="0" />
      <path
         d="m 193.70964,272.04085 h 1.08005 v 0.85978 h -4.6684 v -0.85978 h 1.07295 v -9.34391 h -1.07295 v -0.85267 h 3.58835 z"
         style="fill:#f57c00;fill-opacity:1;stroke-width:0.36380842"
         id="path852"
         inkscape:connector-curvature="0" />
      <path
         d="m 195.83422,272.68036 v -2.11037 h 0.80294 q 0.0995,0.84557 0.6324,1.29322 0.53292,0.44055 1.44955,0.44055 0.76741,0 1.17243,-0.26291 0.41212,-0.27001 0.41212,-0.76741 0,-0.45476 -0.2629,-0.70345 -0.25581,-0.2487 -1.0019,-0.43345 l -1.03742,-0.26291 q -1.17243,-0.29133 -1.69825,-0.83135 -0.52581,-0.54714 -0.52581,-1.47087 0,-1.22928 0.85267,-1.82615 0.85268,-0.60398 2.62909,-0.60398 0.66793,0 1.42112,0.11369 0.76031,0.10659 1.67693,0.34107 v 1.90431 h -0.80293 q -0.064,-0.77451 -0.55424,-1.16532 -0.48319,-0.39081 -1.39271,-0.39081 -0.76741,0 -1.16532,0.2487 -0.39081,0.24159 -0.39081,0.71056 0,0.3837 0.22738,0.60398 0.22738,0.22027 0.81715,0.36949 l 1.03031,0.26291 q 1.48508,0.3766 2.05353,0.93084 0.56845,0.55424 0.56845,1.54192 0,1.27901 -0.91662,1.8901 -0.90952,0.60398 -2.83515,0.60398 -0.70346,0 -1.49218,-0.10659 -0.78873,-0.10658 -1.66983,-0.31975 z"
         style="fill:#f57c00;fill-opacity:1;stroke-width:0.36380842"
         id="path854"
         inkscape:connector-curvature="0" />
    </g>
    <path
       style="fill:#f57c00;stroke-width:1.37502396"
       d="m 103.04492,30.167969 c -41.212197,0 -74.640623,33.428429 -74.640623,74.640621 0,41.2122 33.428426,74.63868 74.640623,74.63868 41.21221,0 74.64063,-33.42648 74.64063,-74.63868 0,-41.212192 -33.42842,-74.640621 -74.64063,-74.640621 z M 60.585938,62.462891 h 28.185546 l 14.197266,14.197265 14.19727,-14.197265 h 28.1875 v 28.1875 28.394529 28.18555 h -28.1875 V 119.04492 102.3418 L 102.96875,116.53906 88.771484,102.3418 v 16.70312 28.18555 H 60.585938 V 119.04492 90.650391 Z"
       transform="matrix(0.26458333,0,0,0.26458333,0,242)"
       id="path3"
       inkscape:connector-curvature="0" />
  </g>
</svg>
