<?xml version="1.0" encoding="utf-8"?>
<!-- Generator: Adobe Illustrator 21.1.0, SVG Export Plug-In . SVG Version: 6.00 Build 0)  -->
<svg version="1.1" id="Layer_1" xmlns="http://www.w3.org/2000/svg" xmlns:xlink="http://www.w3.org/1999/xlink" x="0px" y="0px"
	 viewBox="0 0 108.6 108.6" enable-background="new 0 0 108.6 108.6" xml:space="preserve">
<path fill="#F57C00" d="M54.3,103.2L54.3,103.2c-27,0-48.9-21.9-48.9-48.9v0c0-27,21.9-48.9,48.9-48.9h0c27,0,48.9,21.9,48.9,48.9v0
	C103.2,81.3,81.3,103.2,54.3,103.2z"/>
<path fill="#FFFFFF" d="M60.2,46.3H48.4V34.5h11.9V46.3z M45.8,48.7H34v11.9h11.9V48.7z M62.8,60.7h11.9V48.9H62.8V60.7z M60.2,48.9
	H48.4v11.9h11.9V48.9z M62.8,34.5v11.9h11.9V34.5H62.8z M45.8,34.5H34v11.9h11.9V34.5z M60.2,75.1H48.4V63.3h11.9V75.1z M62.8,63.3
	v11.9h11.9V63.3H62.8z M45.8,63.3H34v11.9h11.9V63.3z"/>
</svg>
