<?xml version="1.0" encoding="UTF-8" standalone="no"?>
<!-- Generator: Adobe Illustrator 21.1.0, SVG Export Plug-In . SVG Version: 6.00 Build 0)  -->

<svg
   xmlns:dc="http://purl.org/dc/elements/1.1/"
   xmlns:cc="http://creativecommons.org/ns#"
   xmlns:rdf="http://www.w3.org/1999/02/22-rdf-syntax-ns#"
   xmlns:svg="http://www.w3.org/2000/svg"
   xmlns="http://www.w3.org/2000/svg"
   xmlns:sodipodi="http://sodipodi.sourceforge.net/DTD/sodipodi-0.dtd"
   xmlns:inkscape="http://www.inkscape.org/namespaces/inkscape"
   version="1.1"
   id="Layer_1"
   x="0px"
   y="0px"
   viewBox="0 0 108.6 108.6"
   enable-background="new 0 0 108.6 108.6"
   xml:space="preserve"
   inkscape:version="0.91 r13725"
   sodipodi:docname="app-launcher.svg"><metadata
     id="metadata11"><rdf:RDF><cc:Work
         rdf:about=""><dc:format>image/svg+xml</dc:format><dc:type
           rdf:resource="http://purl.org/dc/dcmitype/StillImage" /></cc:Work></rdf:RDF></metadata><defs
     id="defs9" /><sodipodi:namedview
     pagecolor="#ffffff"
     bordercolor="#666666"
     borderopacity="1"
     objecttolerance="10"
     gridtolerance="10"
     guidetolerance="10"
     inkscape:pageopacity="0"
     inkscape:pageshadow="2"
     inkscape:window-width="1920"
     inkscape:window-height="1029"
     id="namedview7"
     showgrid="false"
     inkscape:zoom="6.14649"
     inkscape:cx="28.970027"
     inkscape:cy="54.540592"
     inkscape:window-x="0"
     inkscape:window-y="0"
     inkscape:window-maximized="1"
     inkscape:current-layer="Layer_1" /><path
     d="m 54.3,108.57823 0,0 C 24.330425,108.57823 0.02176913,84.269575 0.02176913,54.3 l 0,0 C 0.02176913,24.330425 24.330425,0.02176913 54.3,0.02176913 l 0,0 c 29.969575,0 54.27823,24.30865587 54.27823,54.27823087 l 0,0 c 0,29.969575 -24.308655,54.27823 -54.27823,54.27823 z"
     id="path3"
     inkscape:connector-curvature="0"
     style="fill:#f57c00" /><path
     d="m 61.303412,44.868483 -13.522338,0 0,-13.522339 13.636934,0 0,13.522339 z m -16.501838,2.750308 -13.522338,0 0,13.636934 13.636935,0 0,-13.636934 z m 19.481338,13.75153 13.636934,0 0,-13.522339 -13.636934,0 0,13.522339 z m -2.9795,-13.522339 -13.522338,0 0,13.636934 13.636934,0 0,-13.636934 z m 2.9795,-16.501838 0,13.636936 13.636934,0 0,-13.636936 -13.636934,0 z m -19.481338,0 -13.522338,0 0,13.636936 13.636935,0 0,-13.636936 z m 16.501838,46.526015 -13.522338,0 0,-13.522339 13.636934,0 0,13.522339 z m 2.9795,-13.522339 0,13.636934 13.636934,0 0,-13.636934 -13.636934,0 z m -19.481338,0 -13.522338,0 0,13.636934 13.636935,0 0,-13.636934 z"
     id="path5"
     inkscape:connector-curvature="0"
     style="fill:#ffffff" /></svg>