<?xml version="1.0" encoding="UTF-8" standalone="no"?>
<!-- Generator: Adobe Illustrator 21.1.0, SVG Export Plug-In . SVG Version: 6.00 Build 0)  -->

<svg
   xmlns:dc="http://purl.org/dc/elements/1.1/"
   xmlns:cc="http://creativecommons.org/ns#"
   xmlns:rdf="http://www.w3.org/1999/02/22-rdf-syntax-ns#"
   xmlns:svg="http://www.w3.org/2000/svg"
   xmlns="http://www.w3.org/2000/svg"
   xmlns:sodipodi="http://sodipodi.sourceforge.net/DTD/sodipodi-0.dtd"
   xmlns:inkscape="http://www.inkscape.org/namespaces/inkscape"
   version="1.1"
   id="Layer_1"
   x="0px"
   y="0px"
   viewBox="0 0 108.6 108.6"
   enable-background="new 0 0 108.6 108.6"
   xml:space="preserve"
   inkscape:version="0.91 r13725"
   sodipodi:docname="calculator.svg"><metadata
     id="metadata11"><rdf:RDF><cc:Work
         rdf:about=""><dc:format>image/svg+xml</dc:format><dc:type
           rdf:resource="http://purl.org/dc/dcmitype/StillImage" /></cc:Work></rdf:RDF></metadata><defs
     id="defs9" /><sodipodi:namedview
     pagecolor="#ffffff"
     bordercolor="#666666"
     borderopacity="1"
     objecttolerance="10"
     gridtolerance="10"
     guidetolerance="10"
     inkscape:pageopacity="0"
     inkscape:pageshadow="2"
     inkscape:window-width="1920"
     inkscape:window-height="1029"
     id="namedview7"
     showgrid="false"
     inkscape:zoom="6.1464899"
     inkscape:cx="38.500903"
     inkscape:cy="55.813451"
     inkscape:window-x="0"
     inkscape:window-y="0"
     inkscape:window-maximized="1"
     inkscape:current-layer="Layer_1" /><path
     d="m 54.279663,108.56892 0,0 c -29.953205,0 -54.24858091,-24.295378 -54.24858091,-54.248583 l 0,0 c 0,-29.953205 24.29537591,-54.24858129 54.24858091,-54.24858129 l 0,0 c 29.953205,0 54.248577,24.29537629 54.248577,54.24858129 l 0,0 c 0,29.953205 -24.295372,54.248583 -54.248577,54.248583 z"
     id="path3"
     inkscape:connector-curvature="0"
     style="fill:#f57c00" /><path
     id="rect17131"
     style="opacity:1;fill:#ffffff;fill-opacity:1;fill-rule:nonzero;stroke:none;stroke-opacity:1"
     d="m 25.424367,50.100952 57.751264,0 c 2.326273,0 4.199049,1.872776 4.199049,4.199049 0,2.326273 -1.872776,4.199048 -4.199049,4.199048 l -57.751264,0 c -2.326272,0 -4.199048,-1.872775 -4.199048,-4.199048 0,-2.326273 1.872776,-4.199049 4.199048,-4.199049 z M 61.835275,34.299999 a 7.5352755,7.5352755 0 0 1 -7.535276,7.535276 7.5352755,7.5352755 0 0 1 -7.535275,-7.535276 7.5352755,7.5352755 0 0 1 7.535275,-7.535275 7.5352755,7.5352755 0 0 1 7.535276,7.535275 z m 0,40.000004 a 7.5352755,7.5352755 0 0 1 -7.535276,7.535276 7.5352755,7.5352755 0 0 1 -7.535275,-7.535276 7.5352755,7.5352755 0 0 1 7.535275,-7.535275 7.5352755,7.5352755 0 0 1 7.535276,7.535275 z" /></svg>