<?xml version="1.0" encoding="UTF-8" standalone="no"?>
<!-- Generator: Adobe Illustrator 21.1.0, SVG Export Plug-In . SVG Version: 6.00 Build 0)  -->

<svg
   xmlns:dc="http://purl.org/dc/elements/1.1/"
   xmlns:cc="http://creativecommons.org/ns#"
   xmlns:rdf="http://www.w3.org/1999/02/22-rdf-syntax-ns#"
   xmlns:svg="http://www.w3.org/2000/svg"
   xmlns="http://www.w3.org/2000/svg"
   xmlns:sodipodi="http://sodipodi.sourceforge.net/DTD/sodipodi-0.dtd"
   xmlns:inkscape="http://www.inkscape.org/namespaces/inkscape"
   version="1.1"
   id="Layer_1"
   x="0px"
   y="0px"
   viewBox="0 0 108.6 108.6"
   enable-background="new 0 0 108.6 108.6"
   xml:space="preserve"
   inkscape:version="0.91 r13725"
   sodipodi:docname="calculator.svg"><metadata
     id="metadata11"><rdf:RDF><cc:Work
         rdf:about=""><dc:format>image/svg+xml</dc:format><dc:type
           rdf:resource="http://purl.org/dc/dcmitype/StillImage" /></cc:Work></rdf:RDF></metadata><defs
     id="defs9" /><sodipodi:namedview
     pagecolor="#ffffff"
     bordercolor="#666666"
     borderopacity="1"
     objecttolerance="10"
     gridtolerance="10"
     guidetolerance="10"
     inkscape:pageopacity="0"
     inkscape:pageshadow="2"
     inkscape:window-width="1920"
     inkscape:window-height="1029"
     id="namedview7"
     showgrid="false"
     inkscape:zoom="4.3462247"
     inkscape:cx="45.764025"
     inkscape:cy="64.331374"
     inkscape:window-x="0"
     inkscape:window-y="0"
     inkscape:window-maximized="1"
     inkscape:current-layer="Layer_1" /><path
     d="m 54.279663,108.56892 0,0 c -29.953205,0 -54.24858091,-24.295378 -54.24858091,-54.248583 l 0,0 c 0,-29.953205 24.29537591,-54.24858129 54.24858091,-54.24858129 l 0,0 c 29.953205,0 54.248577,24.29537629 54.248577,54.24858129 l 0,0 c 0,29.953205 -24.295372,54.248583 -54.248577,54.248583 z"
     id="path3"
     inkscape:connector-curvature="0"
     style="fill:#f57c00" /><path
     d="m 47.586627,62.259511 14.168512,0 0,14.168513 -14.168512,0 0,-14.168513 z m 14.291717,-28.460228 -14.291717,0 0,14.16851 14.168512,0 0,-14.16851 z m -37.330951,18.973487 0,4.558562 60.24698,0 0,-4.558562 -60.24698,0 z"
     id="path5"
     inkscape:connector-curvature="0"
     style="fill:#ffffff" /></svg>