<?xml version="1.0" encoding="UTF-8" standalone="no"?>
<svg
   xmlns:dc="http://purl.org/dc/elements/1.1/"
   xmlns:cc="http://creativecommons.org/ns#"
   xmlns:rdf="http://www.w3.org/1999/02/22-rdf-syntax-ns#"
   xmlns:svg="http://www.w3.org/2000/svg"
   xmlns="http://www.w3.org/2000/svg"
   viewBox="0 0 108.6 108.6"
   id="svg2"
   version="1.1">
  <metadata
     id="metadata12">
    <rdf:RDF>
      <cc:Work
         rdf:about="">
        <dc:format>image/svg+xml</dc:format>
        <dc:type
           rdf:resource="http://purl.org/dc/dcmitype/StillImage" />
        <dc:title></dc:title>
      </cc:Work>
    </rdf:RDF>
  </metadata>
  <defs
     id="defs10" />
  <path
     d="M54.29 108.6C24.313 108.6 0 84.285 0 54.31 0 24.336 24.315.023 54.29.023c29.975 0 54.288 24.313 54.288 54.289 0 29.975-24.313 54.288-54.289 54.288z"
     fill="#f57c00"
     id="path4" />
  <rect
     y="33.840511"
     x="12.178903"
     height="12.208516"
     width="12.208516"
     id="backgroundrect"
     style="fill:none;stroke:none" />
  <g
     transform="matrix(0.12208516,0,0,0.12208516,-0.70585359,0.01806683)"
     id="g29"
     class="currentLayer">
    <title
       id="title31">Layer 1</title>
    <rect
       class=""
       id="svg_1"
       height="900"
       width="900"
       x="0"
       y="0"
       style="fill:none;stroke:none" />
    <g
       class="selected"
       id="svg_2"
       filter=""
       style="opacity:1">
      <path
         filter=""
         id="svg_3"
         d="m 568.633,201.817 c -1.602,0.433 -3.296,1.17 -3.765,1.638 -0.467,0.468 -1.147,0.852 -1.51,0.852 -0.899,0 -5.727,5.304 -7.196,7.904 -1.091,1.932 -1.211,5.873 -1.391,45.305 -0.179,39.394 -0.093,43.462 0.986,46.298 0.651,1.71 1.517,3.455 1.924,3.877 0.408,0.422 1.576,1.666 2.597,2.765 4.608,4.955 7.146,5.797 17.488,5.797 7.437,0 8.971,-0.199 11.43,-1.481 3.938,-2.053 7.209,-5.404 9.81,-10.048 1.115,-1.993 1.209,-5.517 1.209,-45.737 0,-48.907 0.287,-46.047 -5.184,-51.628 -3.261,-3.327 -5.118,-4.441 -9.323,-5.594 -3.802,-1.043 -13.119,-1.014 -17.075,0.052 z m -249.571,0.146 c -5.466,1.02 -11.465,5.651 -14.161,10.932 -1.338,2.621 -1.382,4.068 -1.382,46.294 0,48.839 -0.29,45.901 5.104,51.74 5.539,5.995 15.078,8.126 25.062,5.599 6.167,-1.56 10.156,-4.618 13.432,-10.295 l 1.994,-3.455 0,-43.823 c 0,-34.444 -0.185,-43.884 -0.863,-44.11 -0.475,-0.159 -0.864,-0.884 -0.864,-1.612 0,-1.577 -6.288,-8.068 -9.579,-9.888 -1.765,-0.975 -4.096,-1.336 -9.671,-1.495 -4.04,-0.115 -8.122,-0.064 -9.072,0.113 z m -94.293,41.172 c -10.899,3.554 -19.702,12.196 -22.616,22.202 -1.201,4.126 -1.642,403.595 -0.451,408.177 1.256,4.829 4.038,11.045 5.758,12.865 0.401,0.424 1.379,1.512 2.172,2.418 3.739,4.269 9.134,7.532 15.23,9.212 3.698,1.019 23.42,1.098 226.141,0.91 187.895,-0.173 222.569,-0.354 225.199,-1.172 1.71,-0.531 3.264,-1.148 3.454,-1.371 0.19,-0.222 1.577,-1.026 3.082,-1.786 4.346,-2.195 10.304,-8.482 12.449,-13.136 4.041,-8.772 3.811,3.963 3.81,-210.757 0,-203.961 0.002,-203.783 -2.569,-208.691 -0.398,-0.76 -1.148,-2.312 -1.667,-3.449 -2.474,-5.422 -14.61,-14.862 -19.105,-14.862 -0.795,0 -1.637,-0.311 -1.872,-0.691 -0.273,-0.442 -10.579,-0.691 -28.647,-0.691 l -28.22,0 -0.237,33.688 c -0.164,23.302 -0.477,34.113 -1.016,35.069 -0.428,0.76 -1.492,2.937 -2.364,4.837 -1.671,3.637 -8.947,11.402 -10.685,11.402 -0.56,0 -1.019,0.311 -1.019,0.691 0,0.38 -0.431,0.691 -0.957,0.691 -0.527,0 -1.847,0.465 -2.936,1.033 -1.088,0.567 -2.615,1.034 -3.395,1.036 -0.778,0.002 -1.804,0.393 -2.279,0.868 -1.268,1.27 -24.451,1.203 -27.736,-0.08 -4.311,-1.684 -11.052,-5.198 -11.052,-5.762 0,-0.302 -0.388,-0.553 -0.864,-0.555 -0.764,-0.005 -2.492,-1.764 -7.395,-7.529 -0.777,-0.914 -1.412,-2.079 -1.412,-2.591 0,-0.512 -0.311,-0.931 -0.691,-0.931 -0.38,0 -0.691,-0.431 -0.691,-0.958 0,-0.527 -0.464,-1.848 -1.032,-2.937 -0.567,-1.088 -1.033,-2.66 -1.036,-3.493 -0.002,-0.833 -0.315,-1.706 -0.695,-1.941 -0.444,-0.274 -0.691,-11.524 -0.691,-31.483 l 0,-31.055 -86.694,0 -86.695,0 0,29.496 c 0,32.051 -0.152,33.621 -4.026,41.68 -3.327,6.919 -9.405,12.936 -16.352,16.186 -1.52,0.711 -3.297,1.554 -3.948,1.873 -0.652,0.319 -4.165,0.932 -7.808,1.361 -8.886,1.049 -19.241,0 -24.335,-2.465 -1.993,-0.964 -3.803,-1.753 -4.022,-1.753 -0.219,0 -0.833,-0.388 -1.365,-0.863 -0.533,-0.475 -2.173,-1.797 -3.644,-2.937 -2.661,-2.062 -7.391,-8.102 -8.929,-11.402 -3.466,-7.436 -3.26,-5.124 -3.485,-39.216 l -0.21,-31.96 -30.19,0.073 c -17.573,0.043 -31.056,0.356 -32.262,0.749 z m 441.679,127.954 c 0.571,0.689 0.731,39.884 0.602,148.053 l -0.174,147.116 -216.522,0.174 c -172.762,0.138 -216.633,-10e-4 -217.071,-0.691 -0.634,-0.998 -0.783,-292.847 -0.151,-294.495 0.381,-0.994 20.098,-1.093 216.479,-1.093 180.954,0 216.186,0.152 216.837,0.936 z m -201.801,40.623 -1.9,0.709 0,27.79 c 0,20.695 0.211,28.003 0.829,28.621 0.619,0.619 8.516,0.829 31.278,0.829 29.651,0 30.479,-0.037 31.638,-1.39 1.082,-1.264 1.187,-3.79 1.167,-27.814 -0.018,-22.475 -0.177,-26.63 -1.065,-27.806 -1.012,-1.34 -1.932,-1.386 -30.545,-1.515 -18.792,-0.084 -30.192,0.125 -31.402,0.576 z m 93.947,-0.307 c -1.048,0.166 -1.899,0.745 -1.899,1.292 0,0.545 -0.311,0.991 -0.691,0.991 -0.448,0 -0.691,9.221 -0.691,26.283 0,23.031 0.138,26.494 1.116,27.986 l 1.115,1.704 30.895,0 30.896,0 0.801,-1.76 c 0.564,-1.236 0.803,-9.524 0.803,-27.855 0,-21.439 -0.175,-26.333 -0.981,-27.436 -0.941,-1.288 -2.123,-1.344 -30.222,-1.424 -16.083,-0.046 -30.096,0.053 -31.142,0.219 z m -281.224,83.445 -1.828,1.695 0,26.637 c 0,25.717 0.048,26.686 1.382,28.02 1.338,1.339 2.302,1.382 31.324,1.382 28.13,0 30.011,-0.077 31.085,-1.264 1.023,-1.131 1.144,-4.137 1.144,-28.659 l 0,-27.397 -2.038,-1.054 c -1.731,-0.895 -6.354,-1.054 -30.64,-1.054 l -28.601,0 -1.828,1.694 z m 93.125,0.002 -1.696,1.696 0,26.531 c 0,24.909 0.079,26.62 1.29,28.017 1.284,1.481 1.427,1.488 31.258,1.466 25.637,-0.019 30.168,-0.173 31.35,-1.066 1.329,-1.004 1.39,-1.982 1.593,-25.718 0.117,-13.571 0.02,-25.999 -0.215,-27.617 -0.737,-5.071 -0.3,-5.005 -33.151,-5.005 l -28.734,0 -1.695,1.696 z m 94.152,-0.61 -1.9,1.031 0,27.716 c 0,25.585 0.093,27.786 1.209,28.633 0.961,0.73 7.317,0.923 30.965,0.94 l 29.756,0.022 1.503,-1.599 c 1.488,-1.585 1.501,-1.837 1.501,-28.285 l 0,-26.686 -2.006,-1.429 c -1.952,-1.391 -2.777,-1.429 -30.567,-1.402 -23.972,0.024 -28.867,0.194 -30.461,1.059 z m 93.775,-0.251 c -3.063,1.756 -3.064,1.771 -3.087,28.958 -0.021,25.268 0.018,26.044 1.41,27.814 l 1.432,1.821 29.869,0 c 29.104,0 29.908,-0.036 31.38,-1.409 1.504,-1.401 1.513,-1.547 1.513,-27.584 0,-14.397 -0.194,-26.68 -0.429,-27.295 -1.142,-2.974 -2.883,-3.142 -32.522,-3.119 -19.899,0.015 -28.591,0.254 -29.566,0.814 z M 276.95,577.592 c -1.367,1.467 -1.408,2.297 -1.408,28.284 l 0,26.773 2.006,1.429 c 1.951,1.389 2.802,1.429 30.441,1.429 28.258,0 30.501,-0.165 31.959,-2.349 0.279,-0.418 0.512,-12.918 0.518,-27.776 0.01,-25.303 -0.07,-27.088 -1.253,-28.159 -1.134,-1.027 -4.303,-1.144 -31.059,-1.144 -29.761,0 -29.796,0.001 -31.204,1.513 z m 93.403,-0.17 -1.554,1.297 0,26.962 0,26.962 1.82,1.432 c 1.775,1.396 2.532,1.432 30.43,1.432 31.896,0 32.251,-0.046 33.034,-4.32 0.226,-1.235 0.318,-13.485 0.203,-27.222 -0.194,-23.43 -0.289,-25.069 -1.523,-26.432 -1.299,-1.436 -1.69,-1.454 -31.086,-1.431 -28.088,0.022 -29.857,0.097 -31.324,1.32 z m 93.537,-0.079 c -1.023,1.131 -1.143,4.137 -1.143,28.66 l 0,27.396 2.038,1.054 c 1.73,0.895 6.334,1.054 30.461,1.054 27.628,0 28.479,-0.04 30.429,-1.429 l 2.006,-1.429 0,-26.965 0,-26.965 -1.554,-1.297 c -1.466,-1.223 -3.236,-1.298 -31.324,-1.32 -27.98,-0.022 -29.839,0.053 -30.913,1.241 z m 92.855,0.557 c -1.391,1.769 -1.432,2.563 -1.432,27.892 l 0,26.072 1.821,1.822 1.822,1.821 29.163,0 29.164,0 1.828,-1.694 1.828,-1.695 0,-25.992 c 0,-25.783 -0.182,-28.071 -2.349,-29.518 -0.418,-0.28 -14.182,-0.512 -30.586,-0.519 l -29.827,-0.01 -1.432,1.821 z"
         style="clip-rule:evenodd;opacity:1;fill:#ffffff;fill-rule:evenodd" />
    </g>
  </g>
</svg>
