<?xml version="1.0" encoding="utf-8"?>
<!-- Generator: Adobe Illustrator 21.1.0, SVG Export Plug-In . SVG Version: 6.00 Build 0)  -->
<svg version="1.1" id="Layer_1" xmlns="http://www.w3.org/2000/svg" xmlns:xlink="http://www.w3.org/1999/xlink" x="0px" y="0px"
	 viewBox="0 0 108.6 108.6" enable-background="new 0 0 108.6 108.6" xml:space="preserve">
<path fill="#F57C00" d="M54.3,103.2L54.3,103.2c-27,0-48.9-21.9-48.9-48.9v0c0-27,21.9-48.9,48.9-48.9h0c27,0,48.9,21.9,48.9,48.9v0
	C103.2,81.3,81.3,103.2,54.3,103.2z"/>
<path fill="#FFFFFF" d="M58.4,71.7h-8.3v-8.3h8.3V71.7z M70.8,51.2h-8.3v8.3h8.3V51.2z M46,51h-8.3v8.3H46V51z M58.4,51h-8.3v8.3
	h8.3V51z M46,71.7v-8.3h-8.3v8.3H46z M70.8,63.4h-8.3v8.3h8.3V63.4z M74.6,35.7v11.8v28.7H34.1V47.5V35.7h6.6v-5.2h2.5v5.2H53v-5.2
	h2.5v5.2h9.9v-5.2H68v5.2H74.6z M73.3,47.5h-38v27.4h38V47.5z"/>
</svg>
