<?xml version="1.0" encoding="UTF-8" standalone="no"?>
<svg
   xmlns:dc="http://purl.org/dc/elements/1.1/"
   xmlns:cc="http://creativecommons.org/ns#"
   xmlns:rdf="http://www.w3.org/1999/02/22-rdf-syntax-ns#"
   xmlns:svg="http://www.w3.org/2000/svg"
   xmlns="http://www.w3.org/2000/svg"
   xmlns:sodipodi="http://sodipodi.sourceforge.net/DTD/sodipodi-0.dtd"
   xmlns:inkscape="http://www.inkscape.org/namespaces/inkscape"
   width="900"
   height="900"
   viewBox="0 0 900 900"
   fill="none"
   id="svg2"
   version="1.1"
   inkscape:version="0.91 r13725"
   sodipodi:docname="Simple Calendar Pro Logo 2 (kópia).svg">
  <metadata
     id="metadata21">
    <rdf:RDF>
      <cc:Work
         rdf:about="">
        <dc:format>image/svg+xml</dc:format>
        <dc:type
           rdf:resource="http://purl.org/dc/dcmitype/StillImage" />
      </cc:Work>
    </rdf:RDF>
  </metadata>
  <sodipodi:namedview
     pagecolor="#ffffff"
     bordercolor="#666666"
     borderopacity="1"
     objecttolerance="10"
     gridtolerance="10"
     guidetolerance="10"
     inkscape:pageopacity="0"
     inkscape:pageshadow="2"
     inkscape:window-width="1920"
     inkscape:window-height="1029"
     id="namedview19"
     showgrid="false"
     inkscape:zoom="0.26222222"
     inkscape:cx="457.62712"
     inkscape:cy="450"
     inkscape:window-x="0"
     inkscape:window-y="0"
     inkscape:window-maximized="1"
     inkscape:current-layer="svg2" />
  <g
     filter="url(#filter0_d)"
     id="g6">
    <path
       fill-rule="evenodd"
       clip-rule="evenodd"
       d="M568.633 201.817C567.031 202.25 565.337 202.987 564.868 203.455C564.401 203.923 563.721 204.307 563.358 204.307C562.459 204.307 557.631 209.611 556.162 212.211C555.071 214.143 554.951 218.084 554.771 257.516C554.592 296.91 554.678 300.978 555.757 303.814C556.408 305.524 557.274 307.269 557.681 307.691C558.089 308.113 559.257 309.357 560.278 310.456C564.886 315.411 567.424 316.253 577.766 316.253C585.203 316.253 586.737 316.054 589.196 314.772C593.134 312.719 596.405 309.368 599.006 304.724C600.121 302.731 600.215 299.207 600.215 258.987C600.215 210.08 600.502 212.94 595.031 207.359C591.77 204.032 589.913 202.918 585.708 201.765C581.906 200.722 572.589 200.751 568.633 201.817ZM319.062 201.963C313.596 202.983 307.597 207.614 304.901 212.895C303.563 215.516 303.519 216.963 303.519 259.189C303.519 308.028 303.229 305.09 308.623 310.929C314.162 316.924 323.701 319.055 333.685 316.528C339.852 314.968 343.841 311.91 347.117 306.233L349.111 302.778V258.955C349.111 224.511 348.926 215.071 348.248 214.845C347.773 214.686 347.384 213.961 347.384 213.233C347.384 211.656 341.096 205.165 337.805 203.345C336.04 202.37 333.709 202.009 328.134 201.85C324.094 201.735 320.012 201.786 319.062 201.963ZM224.769 243.135C213.87 246.689 205.067 255.331 202.153 265.337C200.952 269.463 200.511 668.932 201.702 673.514C202.958 678.343 205.74 684.559 207.46 686.379C207.861 686.803 208.839 687.891 209.632 688.797C213.371 693.066 218.766 696.329 224.862 698.009C228.56 699.028 248.282 699.107 451.003 698.919C638.898 698.746 673.572 698.565 676.202 697.747C677.912 697.216 679.466 696.599 679.656 696.376C679.846 696.154 681.233 695.35 682.738 694.59C687.084 692.395 693.042 686.108 695.187 681.454C699.228 672.682 698.998 685.417 698.997 470.697C698.997 266.736 698.999 266.914 696.428 262.006C696.03 261.246 695.28 259.694 694.761 258.557C692.287 253.135 680.151 243.695 675.656 243.695C674.861 243.695 674.019 243.384 673.784 243.004C673.511 242.562 663.205 242.313 645.137 242.313H616.917L616.68 276.001C616.516 299.303 616.203 310.114 615.664 311.07C615.236 311.83 614.172 314.007 613.3 315.907C611.629 319.544 604.353 327.309 602.615 327.309C602.055 327.309 601.596 327.62 601.596 328C601.596 328.38 601.165 328.691 600.639 328.691C600.112 328.691 598.792 329.156 597.703 329.724C596.615 330.291 595.088 330.758 594.308 330.76C593.53 330.762 592.504 331.153 592.029 331.628C590.761 332.898 567.578 332.831 564.293 331.548C559.982 329.864 553.241 326.35 553.241 325.786C553.241 325.484 552.853 325.233 552.377 325.231C551.613 325.226 549.885 323.467 544.982 317.702C544.205 316.788 543.57 315.623 543.57 315.111C543.57 314.599 543.259 314.18 542.879 314.18C542.499 314.18 542.188 313.749 542.188 313.222C542.188 312.695 541.724 311.374 541.156 310.285C540.589 309.197 540.123 307.625 540.12 306.792C540.118 305.959 539.805 305.086 539.425 304.851C538.981 304.577 538.734 293.327 538.734 273.368V242.313H452.04H365.345V271.809C365.345 303.86 365.193 305.43 361.319 313.489C357.992 320.408 351.914 326.425 344.967 329.675C343.447 330.386 341.67 331.229 341.019 331.548C340.367 331.867 336.854 332.48 333.211 332.909C324.325 333.958 313.97 332.909 308.876 330.444C306.883 329.48 305.073 328.691 304.854 328.691C304.635 328.691 304.021 328.303 303.489 327.828C302.956 327.353 301.316 326.031 299.845 324.891C297.184 322.829 292.454 316.789 290.916 313.489C287.45 306.053 287.656 308.365 287.431 274.273L287.221 242.313L257.031 242.386C239.458 242.429 225.975 242.742 224.769 243.135ZM666.448 371.089C667.019 371.778 667.179 410.973 667.05 519.142L666.876 666.258L450.354 666.432C277.592 666.57 233.721 666.431 233.283 665.741C232.649 664.743 232.5 372.894 233.132 371.246C233.513 370.252 253.23 370.153 449.611 370.153C630.565 370.153 665.797 370.305 666.448 371.089ZM464.647 411.712L462.747 412.421V440.211C462.747 460.906 462.958 468.214 463.576 468.832C464.195 469.451 472.092 469.661 494.854 469.661C524.505 469.661 525.333 469.624 526.492 468.271C527.574 467.007 527.679 464.481 527.659 440.457C527.641 417.982 527.482 413.827 526.594 412.651C525.582 411.311 524.662 411.265 496.049 411.136C477.257 411.052 465.857 411.261 464.647 411.712ZM558.594 411.405C557.546 411.571 556.695 412.15 556.695 412.697C556.695 413.242 556.384 413.688 556.004 413.688C555.556 413.688 555.313 422.909 555.313 439.971C555.313 463.002 555.451 466.465 556.429 467.957L557.544 469.661H588.439H619.335L620.136 467.901C620.7 466.665 620.939 458.377 620.939 440.046C620.939 418.607 620.764 413.713 619.958 412.61C619.017 411.322 617.835 411.266 589.736 411.186C573.653 411.14 559.64 411.239 558.594 411.405ZM277.37 494.85L275.542 496.545V523.182C275.542 548.899 275.59 549.868 276.924 551.202C278.262 552.541 279.226 552.584 308.248 552.584C336.378 552.584 338.259 552.507 339.333 551.32C340.356 550.189 340.477 547.183 340.477 522.661V495.264L338.439 494.21C336.708 493.315 332.085 493.156 307.799 493.156H279.198L277.37 494.85ZM370.495 494.852L368.799 496.548V523.079C368.799 547.988 368.878 549.699 370.089 551.096C371.373 552.577 371.516 552.584 401.347 552.562C426.984 552.543 431.515 552.389 432.697 551.496C434.026 550.492 434.087 549.514 434.29 525.778C434.407 512.207 434.31 499.779 434.075 498.161C433.338 493.09 433.775 493.156 400.924 493.156H372.19L370.495 494.852ZM464.647 494.242L462.747 495.273V522.989C462.747 548.574 462.84 550.775 463.956 551.622C464.917 552.352 471.273 552.545 494.921 552.562L524.677 552.584L526.18 550.985C527.668 549.4 527.681 549.148 527.681 522.7V496.014L525.675 494.585C523.723 493.194 522.898 493.156 495.108 493.183C471.136 493.207 466.241 493.377 464.647 494.242ZM558.422 493.991C555.359 495.747 555.358 495.762 555.335 522.949C555.314 548.217 555.353 548.993 556.745 550.763L558.177 552.584H588.046C617.15 552.584 617.954 552.548 619.426 551.175C620.93 549.774 620.939 549.628 620.939 523.591C620.939 509.194 620.745 496.911 620.51 496.296C619.368 493.322 617.627 493.154 587.988 493.177C568.089 493.192 559.397 493.431 558.422 493.991ZM276.95 577.592C275.583 579.059 275.542 579.889 275.542 605.876V632.649L277.548 634.078C279.499 635.467 280.35 635.507 307.989 635.507C336.247 635.507 338.49 635.342 339.948 633.158C340.227 632.74 340.46 620.24 340.466 605.382C340.476 580.079 340.396 578.294 339.213 577.223C338.079 576.196 334.91 576.079 308.154 576.079C278.393 576.079 278.358 576.08 276.95 577.592ZM370.353 577.422L368.799 578.719V605.681V632.643L370.619 634.075C372.394 635.471 373.151 635.507 401.049 635.507C432.945 635.507 433.3 635.461 434.083 631.187C434.309 629.952 434.401 617.702 434.286 603.965C434.092 580.535 433.997 578.896 432.763 577.533C431.464 576.097 431.073 576.079 401.677 576.102C373.589 576.124 371.82 576.199 370.353 577.422ZM463.89 577.343C462.867 578.474 462.747 581.48 462.747 606.003V633.399L464.785 634.453C466.515 635.348 471.119 635.507 495.246 635.507C522.874 635.507 523.725 635.467 525.675 634.078L527.681 632.649V605.684V578.719L526.127 577.422C524.661 576.199 522.891 576.124 494.803 576.102C466.823 576.08 464.964 576.155 463.89 577.343ZM556.745 577.9C555.354 579.669 555.313 580.463 555.313 605.792V631.864L557.134 633.686L558.956 635.507H588.119H617.283L619.111 633.813L620.939 632.118V606.126C620.939 580.343 620.757 578.055 618.59 576.608C618.172 576.328 604.408 576.096 588.004 576.089L558.177 576.079L556.745 577.9Z"
       fill="white"
       id="path8" />
  </g>
  <defs
     id="defs10">
    <linearGradient
       id="paint0_linear"
       x1="450"
       y1="900"
       x2="450"
       y2="0"
       gradientUnits="userSpaceOnUse">
      <stop
         stop-color="#F55300"
         id="stop13" />
      <stop
         offset="0.508558"
         stop-color="#F57C00"
         id="stop15" />
      <stop
         offset="1"
         stop-color="#F5A500"
         id="stop17" />
    </linearGradient>
  </defs>
</svg>
