<?xml version="1.0" encoding="utf-8"?>
<!-- Generator: Adobe Illustrator 21.1.0, SVG Export Plug-In . SVG Version: 6.00 Build 0)  -->
<svg version="1.1" id="Layer_1" xmlns="http://www.w3.org/2000/svg" xmlns:xlink="http://www.w3.org/1999/xlink" x="0px" y="0px"
	 viewBox="0 0 108.6 108.6" style="enable-background:new 0 0 108.6 108.6;" xml:space="preserve">
<style type="text/css">
	.st0{fill:#F57C00;}
	.st1{fill:#FFFFFF;}
</style>
<path class="st0" d="M54.3,103.3L54.3,103.3c-27,0-48.9-21.9-48.9-48.9l0,0c0-27,21.9-48.9,48.9-48.9l0,0c27,0,48.9,21.9,48.9,48.9
	l0,0C103.2,81.4,81.3,103.3,54.3,103.3z"/>
<path class="st1" d="M54.3,28.3c-14.4,0-26.1,11.7-26.1,26.1s11.7,26.1,26.1,26.1c14.4,0,26.1-11.7,26.1-26.1S68.7,28.3,54.3,28.3z
	 M54.3,75.2c-11.5,0-20.9-9.3-20.9-20.9s9.3-20.9,20.9-20.9s20.9,9.3,20.9,20.9S65.8,75.2,54.3,75.2z M55.6,41.3h-3.9V57l13.7,8.2
	l2-3.2l-11.7-7V41.3z"/>
</svg>
