<?xml version="1.0" encoding="UTF-8" standalone="no"?>
<!-- Generator: Adobe Illustrator 21.1.0, SVG Export Plug-In . SVG Version: 6.00 Build 0)  -->

<svg
   xmlns:dc="http://purl.org/dc/elements/1.1/"
   xmlns:cc="http://creativecommons.org/ns#"
   xmlns:rdf="http://www.w3.org/1999/02/22-rdf-syntax-ns#"
   xmlns:svg="http://www.w3.org/2000/svg"
   xmlns="http://www.w3.org/2000/svg"
   xmlns:sodipodi="http://sodipodi.sourceforge.net/DTD/sodipodi-0.dtd"
   xmlns:inkscape="http://www.inkscape.org/namespaces/inkscape"
   version="1.1"
   id="Layer_1"
   x="0px"
   y="0px"
   viewBox="0 0 108.6 108.6"
   style="enable-background:new 0 0 108.6 108.6;"
   xml:space="preserve"
   inkscape:version="0.91 r13725"
   sodipodi:docname="contacts.svg"><metadata
     id="metadata13"><rdf:RDF><cc:Work
         rdf:about=""><dc:format>image/svg+xml</dc:format><dc:type
           rdf:resource="http://purl.org/dc/dcmitype/StillImage" /></cc:Work></rdf:RDF></metadata><defs
     id="defs11" /><sodipodi:namedview
     pagecolor="#ffffff"
     bordercolor="#666666"
     borderopacity="1"
     objecttolerance="10"
     gridtolerance="10"
     guidetolerance="10"
     inkscape:pageopacity="0"
     inkscape:pageshadow="2"
     inkscape:window-width="1920"
     inkscape:window-height="1029"
     id="namedview9"
     showgrid="false"
     inkscape:zoom="3.073245"
     inkscape:cx="0.42683106"
     inkscape:cy="12.097108"
     inkscape:window-x="0"
     inkscape:window-y="0"
     inkscape:window-maximized="1"
     inkscape:current-layer="Layer_1" /><style
     type="text/css"
     id="style3">
	.st0{fill:#F57C00;}
	.st1{fill:#FFFFFF;}
</style><path
     class="st0"
     d="m 54.285176,108.57823 0,0 c -29.961391,0 -54.26340687,-24.302015 -54.26340687,-54.263406 l 0,0 c 0,-29.961389 24.30201587,-54.2634051 54.26340687,-54.2634051 l 0,0 c 29.961389,0 54.263404,24.3020161 54.263404,54.2634051 l 0,0 c 0,29.961391 -24.302015,54.263406 -54.263404,54.263406 z"
     id="path5"
     inkscape:connector-curvature="0"
     style="fill:#f57c00" /><path
     class="st1"
     d="m 55.061952,53.316112 c 6.880022,0 12.539396,-5.548405 12.539396,-12.539397 0,-6.99099 -5.548405,-12.539396 -12.539396,-12.539396 -6.990991,0 -12.539397,5.548406 -12.539397,12.539396 0,6.990992 5.659374,12.539397 12.539397,12.539397 z m 0,6.214215 c -8.322608,0 -24.967825,4.216788 -24.967825,12.539396 l 0,6.214214 49.93565,0 0,-6.214214 c 0,-8.322608 -16.645217,-12.539396 -24.967825,-12.539396 z"
     id="path7"
     inkscape:connector-curvature="0"
     style="fill:#ffffff" /></svg>