<?xml version="1.0" encoding="utf-8"?>
<!-- Generator: Adobe Illustrator 21.1.0, SVG Export Plug-In . SVG Version: 6.00 Build 0)  -->
<svg version="1.1" id="Layer_1" xmlns="http://www.w3.org/2000/svg" xmlns:xlink="http://www.w3.org/1999/xlink" x="0px" y="0px"
	 viewBox="0 0 108.6 108.6" style="enable-background:new 0 0 108.6 108.6;" xml:space="preserve">
<style type="text/css">
	.st0{fill:#F57C00;}
	.st1{fill:#FFFFFF;}
</style>
<path class="st0" d="M54.3,103.2L54.3,103.2c-27,0-48.9-21.9-48.9-48.9l0,0c0-27,21.9-48.9,48.9-48.9l0,0c27,0,48.9,21.9,48.9,48.9
	l0,0C103.2,81.3,81.3,103.2,54.3,103.2z"/>
<path class="st1" d="M55,53.4c6.2,0,11.3-5,11.3-11.3s-5-11.3-11.3-11.3s-11.3,5-11.3,11.3S48.8,53.4,55,53.4z M55,59
	c-7.5,0-22.5,3.8-22.5,11.3v5.6h45v-5.6C77.5,62.8,62.5,59,55,59z"/>
</svg>
