<?xml version="1.0" encoding="UTF-8" standalone="no"?>
<!-- Generator: Adobe Illustrator 21.1.0, SVG Export Plug-In . SVG Version: 6.00 Build 0)  -->

<svg
   xmlns:dc="http://purl.org/dc/elements/1.1/"
   xmlns:cc="http://creativecommons.org/ns#"
   xmlns:rdf="http://www.w3.org/1999/02/22-rdf-syntax-ns#"
   xmlns:svg="http://www.w3.org/2000/svg"
   xmlns="http://www.w3.org/2000/svg"
   xmlns:sodipodi="http://sodipodi.sourceforge.net/DTD/sodipodi-0.dtd"
   xmlns:inkscape="http://www.inkscape.org/namespaces/inkscape"
   version="1.1"
   id="Layer_1"
   x="0px"
   y="0px"
   viewBox="0 0 108.6 108.6"
   style="enable-background:new 0 0 108.6 108.6;"
   xml:space="preserve"
   inkscape:version="0.91 r13725"
   sodipodi:docname="dialer.svg"><metadata
     id="metadata13"><rdf:RDF><cc:Work
         rdf:about=""><dc:format>image/svg+xml</dc:format><dc:type
           rdf:resource="http://purl.org/dc/dcmitype/StillImage" /></cc:Work></rdf:RDF></metadata><defs
     id="defs11" /><sodipodi:namedview
     pagecolor="#ffffff"
     bordercolor="#666666"
     borderopacity="1"
     objecttolerance="10"
     gridtolerance="10"
     guidetolerance="10"
     inkscape:pageopacity="0"
     inkscape:pageshadow="2"
     inkscape:window-width="1920"
     inkscape:window-height="1029"
     id="namedview9"
     showgrid="false"
     inkscape:zoom="4.3462248"
     inkscape:cx="29.974014"
     inkscape:cy="46.675659"
     inkscape:window-x="0"
     inkscape:window-y="0"
     inkscape:window-maximized="1"
     inkscape:current-layer="Layer_1" /><style
     type="text/css"
     id="style3">
	.st0{fill:#F57C00;}
	.st1{fill:#FFFFFF;}
</style><path
     class="st0"
     d="m 54.285176,108.57823 0,0 c -29.961391,0 -54.26340687,-24.302015 -54.26340687,-54.263406 l 0,0 c 0,-29.961389 24.30201587,-54.2634051 54.26340687,-54.2634051 l 0,0 c 29.961389,0 54.263404,24.3020161 54.263404,54.2634051 l 0,0 c 0,29.961391 -24.302015,54.263406 -54.263404,54.263406 z"
     id="path5"
     inkscape:connector-curvature="0"
     style="fill:#f57c00" /><g
     id="g6"
     transform="matrix(0.06320864,0.00781883,-0.00781883,0.06320864,27.018432,19.079196)"
     style="fill:#ffffff"><g
       transform="matrix(0.1,0,0,-0.1,0,511)"
       id="g8"
       style="fill:#ffffff"><path
         d="M 1449.3,4983.4 C 1310.3,4932.7 1204.5,4844.5 897.9,4531.3 465.6,4085.8 304.6,3814.5 187.7,3329.3 -110,2103 357.6,548.2 1475.8,-949.4 c 637.4,-855.7 1541.6,-1768.8 2381.9,-2404 1786.5,-1354.2 3630.3,-1784.2 4900.6,-1146.9 242.6,121.3 447.7,286.7 782.9,630.8 222.8,229.4 275.7,297.7 317.6,405.8 61.7,167.6 52.9,390.4 -19.9,538.2 -35.3,68.4 -337.4,388.2 -970.4,1021.1 -1032.2,1036.6 -1052,1052 -1325.5,1052 -269.1,0 -322,-30.9 -708,-416.8 -386,-383.8 -416.8,-438.9 -467.6,-780.7 -28.7,-196.3 -39.7,-205.1 -258.1,-200.7 -333,6.6 -785.2,242.6 -1336.6,694.7 -297.5,247 -1259.1,1215.2 -1479.6,1490.9 -438.9,549.2 -648.4,961.6 -655,1285.8 -4.4,220.6 4.4,231.6 202.9,260.2 330.8,46.3 397,86 749.9,432.3 379.4,374.9 445.5,480.8 445.5,730 0,286.7 -6.6,295.5 -1052,1336.5 -630.8,630.8 -952.8,935.1 -1021.1,970.4 -125.8,61.9 -390.5,79.6 -514,33.2 z"
         id="path10"
         inkscape:connector-curvature="0"
         style="fill:#ffffff" /></g></g></svg>