<?xml version="1.0" encoding="utf-8"?>
<!-- Generator: Adobe Illustrator 21.1.0, SVG Export Plug-In . SVG Version: 6.00 Build 0)  -->
<svg version="1.1" id="Layer_1" xmlns="http://www.w3.org/2000/svg" xmlns:xlink="http://www.w3.org/1999/xlink" x="0px" y="0px"
	 viewBox="0 0 108.6 108.6" enable-background="new 0 0 108.6 108.6" xml:space="preserve">
<path fill="#F57C00" d="M54.3,103.2L54.3,103.2c-27,0-48.9-21.9-48.9-48.9v0c0-27,21.9-48.9,48.9-48.9h0c27,0,48.9,21.9,48.9,48.9v0
	C103.2,81.3,81.3,103.2,54.3,103.2z"/>
<path fill="#FFFFFF" d="M65.1,49.5l1.2,1.2L47.5,69.4l-14.3,3.2l3.1-14.3l18.8-18.8l2.8,2.8L39.1,61.2c-0.6,0.7-1.7,0.4-1.7,0.4
	l-1.7,6.7l1.6,1.7l9.1-2.1L65.1,49.5z M74.7,38.9l-7.9-7.6c-0.9-0.9-2.4-0.9-3.2,0.1L59.9,35l10.9,11.2l3.9-4.1
	C75.6,41.2,75.6,39.8,74.7,38.9z M40.4,65.4c0.9,1,2.4,1,3.4,0.1l18.8-18.6l-3.4-3.5L40.4,62.2C39.6,63.1,39.5,64.5,40.4,65.4z
	 M56.4,38.5l11.2,11.2l2.4-2.3L58.7,36L56.4,38.5z"/>
<polygon fill="#FFFFFF" points="75.4,72.6 33.2,72.6 33.6,70.9 75.4,70.9 "/>
</svg>
