<?xml version="1.0" encoding="utf-8"?>
<!-- Generator: Adobe Illustrator 21.1.0, SVG Export Plug-In . SVG Version: 6.00 Build 0)  -->
<svg version="1.1" id="Layer_1" xmlns="http://www.w3.org/2000/svg" xmlns:xlink="http://www.w3.org/1999/xlink" x="0px" y="0px"
	 viewBox="0 0 108.6 108.6" enable-background="new 0 0 108.6 108.6" xml:space="preserve">
<path fill="#F57C00" d="M54.3,103.2L54.3,103.2c-27,0-48.9-21.9-48.9-48.9v0c0-27,21.9-48.9,48.9-48.9h0c27,0,48.9,21.9,48.9,48.9v0
	C103.2,81.3,81.3,103.2,54.3,103.2z"/>
<path fill="#FFFFFF" d="M31.2,44.3h15.4l6,6.6h17v25.8H31.2V44.3z M74.6,45.6H55.8l-6-6.6H37.4v2.4h11.3l6,6.6h17.5v22.2h2.4V45.6z
	 M79.5,40.5H58.3l-6-6.6H39.9v2.4h11.3l6,6.6h19.9v22.2h2.4V40.5z"/>
</svg>
