<?xml version="1.0" encoding="UTF-8" standalone="no"?>
<!-- Generator: Adobe Illustrator 21.1.0, SVG Export Plug-In . SVG Version: 6.00 Build 0)  -->

<svg
   xmlns:dc="http://purl.org/dc/elements/1.1/"
   xmlns:cc="http://creativecommons.org/ns#"
   xmlns:rdf="http://www.w3.org/1999/02/22-rdf-syntax-ns#"
   xmlns:svg="http://www.w3.org/2000/svg"
   xmlns="http://www.w3.org/2000/svg"
   xmlns:sodipodi="http://sodipodi.sourceforge.net/DTD/sodipodi-0.dtd"
   xmlns:inkscape="http://www.inkscape.org/namespaces/inkscape"
   version="1.1"
   id="Layer_1"
   x="0px"
   y="0px"
   viewBox="0 0 108.6 108.6"
   enable-background="new 0 0 108.6 108.6"
   xml:space="preserve"
   inkscape:version="0.91 r13725"
   sodipodi:docname="file-manager.svg"><metadata
     id="metadata11"><rdf:RDF><cc:Work
         rdf:about=""><dc:format>image/svg+xml</dc:format><dc:type
           rdf:resource="http://purl.org/dc/dcmitype/StillImage" /></cc:Work></rdf:RDF></metadata><defs
     id="defs9" /><sodipodi:namedview
     pagecolor="#ffffff"
     bordercolor="#666666"
     borderopacity="1"
     objecttolerance="10"
     gridtolerance="10"
     guidetolerance="10"
     inkscape:pageopacity="0"
     inkscape:pageshadow="2"
     inkscape:window-width="1920"
     inkscape:window-height="1029"
     id="namedview7"
     showgrid="false"
     inkscape:zoom="3.073245"
     inkscape:cx="30.764214"
     inkscape:cy="56.432309"
     inkscape:window-x="0"
     inkscape:window-y="0"
     inkscape:window-maximized="1"
     inkscape:current-layer="Layer_1" /><path
     d="m 54.3,108.52071 0,0 C 24.362185,108.52071 0.07929032,84.237815 0.07929032,54.3 l 0,0 C 0.07929032,24.362185 24.362185,0.07929032 54.3,0.07929032 l 0,0 c 29.937815,0 54.22071,24.28289468 54.22071,54.22070968 l 0,0 c 0,29.937815 -24.282895,54.22071 -54.22071,54.22071 z"
     id="path3"
     inkscape:connector-curvature="0"
     style="fill:#f57c00" /><path
     d="m 27.996282,42.750929 17.585479,0 6.851486,7.536635 19.412543,0 0,29.461388 -43.849508,0 0,-36.998023 z m 49.55908,1.484488 -21.467989,0 -6.851486,-7.536633 -14.159736,0 0,2.740593 12.903631,0 6.851486,7.536636 19.983499,0 0,25.350496 2.740595,0 0,-28.091092 z m 5.59538,-5.823762 -24.208583,0 -6.851486,-7.536634 -14.159738,0 0,2.740593 12.903632,0 6.851486,7.536635 22.724095,0 0,25.350498 2.740594,0 0,-28.091092 z"
     id="path5"
     inkscape:connector-curvature="0"
     style="fill:#ffffff" /></svg>