<?xml version="1.0" encoding="UTF-8" standalone="no"?>
<!-- Generator: Adobe Illustrator 21.1.0, SVG Export Plug-In . SVG Version: 6.00 Build 0)  -->

<svg
   xmlns:dc="http://purl.org/dc/elements/1.1/"
   xmlns:cc="http://creativecommons.org/ns#"
   xmlns:rdf="http://www.w3.org/1999/02/22-rdf-syntax-ns#"
   xmlns:svg="http://www.w3.org/2000/svg"
   xmlns="http://www.w3.org/2000/svg"
   xmlns:sodipodi="http://sodipodi.sourceforge.net/DTD/sodipodi-0.dtd"
   xmlns:inkscape="http://www.inkscape.org/namespaces/inkscape"
   version="1.1"
   id="Layer_1"
   x="0px"
   y="0px"
   viewBox="0 0 108.6 108.6"
   enable-background="new 0 0 108.6 108.6"
   xml:space="preserve"
   inkscape:version="0.91 r13725"
   sodipodi:docname="file-manager.svg"><metadata
     id="metadata11"><rdf:RDF><cc:Work
         rdf:about=""><dc:format>image/svg+xml</dc:format><dc:type
           rdf:resource="http://purl.org/dc/dcmitype/StillImage" /></cc:Work></rdf:RDF></metadata><defs
     id="defs9" /><sodipodi:namedview
     pagecolor="#ffffff"
     bordercolor="#666666"
     borderopacity="1"
     objecttolerance="10"
     gridtolerance="10"
     guidetolerance="10"
     inkscape:pageopacity="0"
     inkscape:pageshadow="2"
     inkscape:window-width="1920"
     inkscape:window-height="1029"
     id="namedview7"
     showgrid="false"
     inkscape:zoom="4.3462248"
     inkscape:cx="13.147376"
     inkscape:cy="54.565436"
     inkscape:window-x="0"
     inkscape:window-y="0"
     inkscape:window-maximized="1"
     inkscape:current-layer="Layer_1" /><path
     d="m 54.3,108.52071 0,0 C 24.362185,108.52071 0.07929032,84.237815 0.07929032,54.3 l 0,0 C 0.07929032,24.362185 24.362185,0.07929032 54.3,0.07929032 l 0,0 c 29.937815,0 54.22071,24.28289468 54.22071,54.22070968 l 0,0 c 0,29.937815 -24.282895,54.22071 -54.22071,54.22071 z"
     id="path3"
     inkscape:connector-curvature="0"
     style="fill:#f57c00" /><path
     id="path21902-6-5"
     style="fill:#ffffff"
     d="m 52.262632,27.878569 -18.139913,0.01447 c -2.675095,-0.0078 -4.828941,0.3132 -5.181022,3.63225 0.504108,-0.05204 1.041864,-0.0661 1.603795,-0.06444 l 18.139914,-0.01485 5.542329,5.798283 22.705122,0.0091 c 3.059889,0.0013 5.03063,2.459984 5.125994,5.17849 l 3.71e-4,30.732066 c 2e-6,0.09296 -0.0023,0.183624 -0.0069,0.272609 1.680243,-0.169276 3.584497,-1.183737 3.584466,-3.840422 L 85.636055,38.864058 C 85.540689,36.145553 83.56995,33.686867 80.510061,33.68557 l -22.705122,-0.009 -5.54233,-5.797917 z M 26.640233,79.33996 c -2.519609,0.0016 -3.67703,-0.690737 -3.67703,-4.082754 0,-12.366055 0,-24.732108 0,-37.098163 0.09293,-4.033514 2.362061,-4.401777 5.229183,-4.393305 l 18.140215,-0.01453 5.542086,5.798041 22.705338,0.0092 c 3.059889,0.0013 5.030677,2.459912 5.12604,5.178416 l 3.71e-4,30.731857 c 3.5e-5,2.933622 -2.322827,3.86856 -4.100924,3.869686 0,0 -32.643559,-0.0093 -48.965271,0.0014 z"
     inkscape:connector-curvature="0" /></svg>