<?xml version="1.0" encoding="utf-8"?>
<!-- Generator: Adobe Illustrator 21.1.0, SVG Export Plug-In . SVG Version: 6.00 Build 0)  -->
<svg version="1.1" id="Layer_1" xmlns="http://www.w3.org/2000/svg" xmlns:xlink="http://www.w3.org/1999/xlink" x="0px" y="0px"
	 viewBox="0 0 108.6 108.6" enable-background="new 0 0 108.6 108.6" xml:space="preserve">
<path fill="#F57C00" d="M54.3,103.2L54.3,103.2c-27,0-48.9-21.9-48.9-48.9v0c0-27,21.9-48.9,48.9-48.9h0c27,0,48.9,21.9,48.9,48.9v0
	C103.2,81.3,81.3,103.2,54.3,103.2z"/>
<path fill="#FFFFFF" d="M53.8,35.2c-11.1,0-20.1,9-20.1,20.1c0,11.1,9,20.1,20.1,20.1c11.1,0,20.1-9,20.1-20.1
	C73.9,44.2,64.8,35.2,53.8,35.2z M53.8,71.5c-8.9,0-16.2-7.3-16.2-16.2s7.3-16.2,16.2-16.2S70,46.4,70,55.3S62.7,71.5,53.8,71.5z"/>
<path fill="#FFFFFF" d="M53.8,41.7c-7.5,0-13.6,6.1-13.6,13.6s6.1,13.6,13.6,13.6c7.5,0,13.6-6.1,13.6-13.6S61.2,41.7,53.8,41.7z
	 M53.8,65c-5.3,0-9.7-4.3-9.7-9.7s4.3-9.7,9.7-9.7c5.3,0,9.7,4.3,9.7,9.7S59.1,65,53.8,65z"/>
<path fill="#FFFFFF" d="M53.8,48.8c-3.6,0-6.5,2.9-6.5,6.5s2.9,6.5,6.5,6.5s6.5-2.9,6.5-6.5S57.3,48.8,53.8,48.8z M53.8,57.9
	c-1.4,0-2.6-1.2-2.6-2.6c0-1.4,1.2-2.6,2.6-2.6c1.4,0,2.6,1.2,2.6,2.6C56.3,56.7,55.2,57.9,53.8,57.9z"/>
</svg>
