<?xml version="1.0" encoding="UTF-8" standalone="no"?>
<!-- Generator: Adobe Illustrator 21.1.0, SVG Export Plug-In . SVG Version: 6.00 Build 0)  -->

<svg
   xmlns:dc="http://purl.org/dc/elements/1.1/"
   xmlns:cc="http://creativecommons.org/ns#"
   xmlns:rdf="http://www.w3.org/1999/02/22-rdf-syntax-ns#"
   xmlns:svg="http://www.w3.org/2000/svg"
   xmlns="http://www.w3.org/2000/svg"
   xmlns:sodipodi="http://sodipodi.sourceforge.net/DTD/sodipodi-0.dtd"
   xmlns:inkscape="http://www.inkscape.org/namespaces/inkscape"
   version="1.1"
   id="Layer_1"
   x="0px"
   y="0px"
   viewBox="0 0 108.6 108.6"
   enable-background="new 0 0 108.6 108.6"
   xml:space="preserve"
   inkscape:version="0.91 r13725"
   sodipodi:docname="flashlight.svg"><metadata
     id="metadata15"><rdf:RDF><cc:Work
         rdf:about=""><dc:format>image/svg+xml</dc:format><dc:type
           rdf:resource="http://purl.org/dc/dcmitype/StillImage" /></cc:Work></rdf:RDF></metadata><defs
     id="defs13" /><sodipodi:namedview
     pagecolor="#ffffff"
     bordercolor="#666666"
     borderopacity="1"
     objecttolerance="10"
     gridtolerance="10"
     guidetolerance="10"
     inkscape:pageopacity="0"
     inkscape:pageshadow="2"
     inkscape:window-width="1920"
     inkscape:window-height="1029"
     id="namedview11"
     showgrid="false"
     inkscape:zoom="6.1464901"
     inkscape:cx="18.67742"
     inkscape:cy="66.478724"
     inkscape:window-x="0"
     inkscape:window-y="0"
     inkscape:window-maximized="1"
     inkscape:current-layer="Layer_1" /><path
     d="m 54.400663,108.37691 0,0 c -29.913996,0 -54.17756967,-24.263577 -54.17756967,-54.177573 l 0,0 c 0,-29.913994 24.26357367,-54.17756787 54.17756967,-54.17756787 l 0,0 c 29.913994,0 54.177567,24.26357387 54.177567,54.17756787 l 0,0 c 0,29.913996 -24.263573,54.177573 -54.177567,54.177573 z"
     id="path3"
     inkscape:connector-curvature="0"
     style="fill:#f57c00" /><path
     style="fill:#ffffff"
     d="m 54.246434,12.917606 c -0.291239,-0.0051 -0.537843,0.0781 -0.760784,0.207662 -0.355656,0.152957 -0.573042,0.407832 -0.70062,0.869469 -0.0071,0.02041 -0.01085,0.03764 -0.01747,0.05822 -0.02318,0.09228 -0.05148,0.184653 -0.06987,0.294998 -0.0039,0.02463 -0.01503,0.05446 -0.01747,0.07764 -0.0032,0.03047 -0.0046,0.109413 -0.0078,0.143617 -0.0254,0.191265 -0.05331,0.364137 -0.07181,0.609404 -0.122126,1.62003 -0.08294,6.826609 0.06016,8.009583 0.02093,0.228413 0.11093,0.428103 0.229013,0.611344 0.08654,0.174382 0.196607,0.338122 0.360983,0.477431 0.274101,0.235795 0.647197,0.307962 1.049961,0.29694 0.402762,0.01102 0.773918,-0.06114 1.048019,-0.29694 0.164375,-0.139309 0.274438,-0.303049 0.360984,-0.477431 0.118081,-0.183241 0.210016,-0.382931 0.230952,-0.611344 0.01964,-0.162374 0.03101,-0.542161 0.04657,-0.836474 0.09789,-1.849919 0.117008,-5.77544 0.01164,-7.173109 -0.0185,-0.245267 -0.04641,-0.418139 -0.07181,-0.609404 -0.0031,-0.0342 -0.0045,-0.113138 -0.0078,-0.143617 -0.0024,-0.02318 -0.01352,-0.05301 -0.01748,-0.07764 -0.01882,-0.112987 -0.04795,-0.206749 -0.07181,-0.30082 -0.0053,-0.01645 -0.0079,-0.03023 -0.01359,-0.04657 -0.128034,-0.467637 -0.346325,-0.723672 -0.706443,-0.877231 -0.234587,-0.135307 -0.499536,-0.21125 -0.809304,-0.19796 -0.01706,-7.46e-4 -0.03749,-0.0075 -0.05434,-0.0078 z m -10.97897,5.096478 c -1.105877,0.17252 -1.732199,1.024471 -1.476931,2.010645 0.246914,0.953882 2.689316,5.199051 3.456521,6.008642 0.35976,0.379631 0.549133,0.489654 0.916047,0.531772 0.819209,0.09404 1.512924,-0.586351 1.643838,-0.842296 0.378466,-0.739941 0.307007,-1.13623 0.0097,-1.766106 -0.870201,-1.843667 -2.495578,-4.507076 -3.052841,-5.187695 -0.478697,-0.584652 -0.977193,-0.83595 -1.496338,-0.754962 z m 22.066624,0 c -0.519146,-0.08099 -1.019583,0.17031 -1.49828,0.754962 -0.55727,0.680619 -2.18069,3.344028 -3.0509,5.187695 -0.297303,0.629876 -0.370705,1.026165 0.0078,1.766106 0.130915,0.255945 0.82463,0.936338 1.643838,0.842296 0.366906,-0.04212 0.558227,-0.152141 0.917987,-0.531772 0.767206,-0.809591 3.207667,-5.05476 3.454582,-6.008642 0.255266,-0.986174 -0.369113,-1.838125 -1.47499,-2.010645 z M 54.114461,29.50736 c -0.414587,0.0013 -0.826321,0.02389 -1.240156,0.03493 -0.409193,0.01099 -0.818582,0.0145 -1.22463,0.03493 -0.531407,0.02654 -1.051891,0.07194 -1.57591,0.114505 -0.341382,0.02807 -0.686445,0.04847 -1.022789,0.08345 -0.748342,0.07666 -1.47672,0.177066 -2.195018,0.287235 -0.07182,0.01126 -0.147891,0.0175 -0.219306,0.02912 -0.946361,0.150329 -1.867726,0.32084 -2.736496,0.529831 -0.74965,0.180337 -1.4581,0.406305 -2.132912,0.650161 -0.473215,0.163464 -0.898534,0.338196 -1.29838,0.516246 -0.01,0.0045 -0.01919,0.0091 -0.02912,0.01359 -1.524922,0.683608 -2.516141,1.465089 -2.870407,2.313404 -0.04109,0.09842 -0.05858,0.24152 -0.08345,0.370688 -0.0043,0.01465 -0.01968,0.03647 -0.02328,0.05045 -0.0037,0.01412 -6.54e-4,0.05036 -0.0039,0.06599 -0.01902,0.133845 -0.02521,0.29445 -0.02912,0.458023 -0.0023,0.120439 -0.0081,0.219206 -0.0019,0.364866 0.0066,0.176181 0.0262,0.381759 0.04657,0.586115 0.08725,0.9565 0.278578,2.145106 0.549239,3.188695 0.453431,1.748323 1.129151,3.308057 2.092157,4.863584 0.576202,0.969068 1.167515,1.797627 1.845677,2.567647 0.0039,0.0045 0.0078,0.0091 0.01164,0.01359 0.170577,0.193217 0.348271,0.384842 0.531773,0.57253 0.73188,0.781871 1.541053,1.468925 2.583172,2.204721 0.09108,0.06781 0.158166,0.131176 0.252301,0.199901 l 1.022789,0.747199 c -0.0057,0.03748 -0.06336,0.284474 -0.143617,0.603581 -0.07715,0.306677 -0.130468,0.741587 -0.172728,1.397359 -6.89e-4,0.01277 -0.0034,0.03237 -0.0039,0.04464 -2.17e-4,0.005 2.18e-4,0.01631 0,0.02135 -0.05407,0.884047 -0.08944,2.206198 -0.12615,4.520068 -0.172742,10.887435 -0.08509,30.050672 0.1475,32.011161 0.01309,0.110254 0.05349,0.235856 0.07764,0.353222 0.0089,0.04378 0.01901,0.08778 0.02912,0.131972 0.03783,0.161096 0.0743,0.317982 0.130032,0.487135 0.0618,0.190557 0.134809,0.381566 0.217367,0.57447 0.08247,0.194417 0.177733,0.383424 0.277531,0.576411 5.35e-4,0.0011 -5.35e-4,0.0029 0,0.0039 0.237396,0.458628 0.507584,0.906972 0.817066,1.30032 0.08903,0.113144 0.207434,0.224738 0.308583,0.337694 0.01865,0.02145 0.03936,0.04085 0.05823,0.06211 0.86796,0.948421 2.094581,1.857493 3.153761,2.284295 1.014242,0.408689 2.092741,0.609634 3.167346,0.60358 1.073963,0.0058 2.151771,-0.195136 3.165406,-0.60358 1.077757,-0.434285 2.330979,-1.366386 3.20034,-2.332814 0.105495,-0.117273 0.227774,-0.231832 0.320228,-0.34934 0.309481,-0.393348 0.579672,-0.843632 0.817066,-1.30226 5.29e-4,-0.0011 -5.28e-4,-0.0029 0,-0.0039 0.09985,-0.193095 0.19503,-0.381885 0.277531,-0.57641 0.08257,-0.192905 0.155574,-0.383913 0.217367,-0.574471 0.05637,-0.171171 0.09397,-0.330076 0.131974,-0.492957 0.0094,-0.04158 0.01888,-0.083 0.02717,-0.124209 0.02425,-0.117736 0.06451,-0.24458 0.07764,-0.355162 0.232586,-1.960489 0.32218,-21.123727 0.149439,-32.011162 -0.03614,-2.277428 -0.07161,-3.597888 -0.12421,-4.483191 -5.9e-4,-0.01389 -0.0013,-0.04457 -0.0019,-0.05823 -0.0013,-0.03097 -0.0093,-0.07856 -0.01164,-0.112566 -0.04157,-0.611043 -0.09269,-1.034365 -0.166906,-1.329431 -0.08027,-0.319106 -0.137938,-0.566092 -0.143618,-0.603581 L 63.2595,49.621463 c 0.09174,-0.06699 0.157646,-0.127955 0.246479,-0.194079 1.045736,-0.737859 1.855417,-1.426859 2.588995,-2.210543 0.183502,-0.187692 0.361195,-0.379309 0.531773,-0.57253 0.0039,-0.0044 0.0077,-0.0091 0.01164,-0.01359 0.685581,-0.778458 1.284732,-1.615839 1.867025,-2.598699 0.95258,-1.545162 1.620414,-3.095916 2.07081,-4.832532 0.274834,-1.059701 0.468258,-2.268626 0.55312,-3.231394 0.01804,-0.187842 0.03642,-0.377875 0.04269,-0.541475 0.0062,-0.146331 4.11e-4,-0.245889 -0.0019,-0.366807 -0.0039,-0.163574 -0.0101,-0.324178 -0.02912,-0.458024 -0.0033,-0.01564 -2.38e-4,-0.05188 -0.0039,-0.06599 -0.0037,-0.01398 -0.01895,-0.03582 -0.02329,-0.05045 -0.02487,-0.129168 -0.04236,-0.272265 -0.08345,-0.370688 -0.356147,-0.852818 -1.352883,-1.638899 -2.891757,-2.325049 -0.400832,-0.178724 -0.829491,-0.352205 -1.304201,-0.516247 -0.675407,-0.244161 -1.384422,-0.471575 -2.134853,-0.652101 -0.868771,-0.208991 -1.790135,-0.379502 -2.736495,-0.529831 -0.07142,-0.0116 -0.147491,-0.01785 -0.219306,-0.02912 -0.718298,-0.110169 -1.446677,-0.210573 -2.19502,-0.287235 -0.336344,-0.03498 -0.681405,-0.05538 -1.022788,-0.08345 -0.524016,-0.04256 -1.044504,-0.08798 -1.57591,-0.114505 -0.406047,-0.02043 -0.815436,-0.02396 -1.22463,-0.03493 -0.475404,-0.01269 -0.948302,-0.03105 -1.424529,-0.03105 -0.06233,-3e-6 -0.123986,-0.004 -0.186315,-0.0039 z m -0.591938,2.804421 c 0.257822,-0.0027 0.517669,-0.0013 0.778252,0 0.260819,-0.0013 0.520204,-0.0027 0.778251,0 0.703407,0.01399 1.413785,0.04062 2.132914,0.08345 1.281075,0.0763 2.384932,0.180167 3.409943,0.312466 0.249043,0.03449 0.499493,0.06784 0.743317,0.106741 0.200984,0.03047 0.396699,0.06355 0.591936,0.09704 0.515846,0.09149 1.024978,0.189222 1.513807,0.30082 0.01937,0.0044 0.03887,0.0091 0.05822,0.01359 1.11367,0.25663 2.150546,0.566848 3.101359,0.925751 0.598665,0.237032 1.008027,0.453084 1.081013,0.589996 l -0.09898,0.08152 c -0.232071,0.18875 -0.552411,0.372996 -0.952921,0.55118 -0.532337,0.191667 -1.224042,0.407746 -2.154262,0.657924 -0.584297,0.157142 -1.099358,0.285842 -1.595317,0.399798 -0.624767,0.122909 -1.273311,0.242239 -1.995119,0.349341 -0.699711,0.103823 -1.381138,0.180403 -2.063045,0.248419 -0.354548,0.02807 -0.68507,0.05945 -1.088775,0.08345 -0.932,0.05543 -1.789707,0.08786 -2.616165,0.106743 -0.279102,0.0029 -0.558429,0.006 -0.84618,0.0039 -0.288432,0.002 -0.568378,-0.0011 -0.848118,-0.0039 -0.826461,-0.01887 -1.684167,-0.0513 -2.616167,-0.106743 -0.40299,-0.02398 -0.73284,-0.05545 -1.086835,-0.08345 -0.682455,-0.06804 -1.362765,-0.144512 -2.063045,-0.248419 -0.72191,-0.107118 -1.372217,-0.226413 -1.997058,-0.349341 -0.495957,-0.113955 -1.011018,-0.242655 -1.595314,-0.399797 -0.927118,-0.249343 -1.616531,-0.464751 -2.148438,-0.655983 -0.402548,-0.178783 -0.723894,-0.363689 -0.956804,-0.553121 l -0.100921,-0.08152 c 0.07326,-0.137434 0.4864,-0.353845 1.088777,-0.591938 0.948845,-0.357735 1.982758,-0.667831 3.093596,-0.923809 0.01931,-0.0044 0.03888,-0.0091 0.05822,-0.01359 0.488828,-0.111598 0.997962,-0.20933 1.513806,-0.30082 0.195239,-0.03349 0.390952,-0.06657 0.591936,-0.09704 0.243825,-0.03889 0.494275,-0.07224 0.743317,-0.106741 1.025012,-0.132299 2.128869,-0.23617 3.409944,-0.312466 0.719151,-0.04283 1.431429,-0.06946 2.134854,-0.08345 z m 0.778252,24.723546 c 0.05843,-2.55e-4 0.116274,0.0072 0.17467,0.0097 0.12575,0.0065 0.251565,0.01169 0.374571,0.03105 0.502886,0.07915 0.972207,0.265821 1.32749,0.557002 0.395069,0.323791 0.834827,0.947434 1.032493,1.426471 0.210249,0.731143 0.319132,3.639173 0.184373,5.308023 -0.123552,1.530026 -0.898525,2.582552 -2.183373,2.965506 -0.271727,0.08099 -0.594088,0.126352 -0.910224,0.135853 -0.316757,-0.0093 -0.639883,-0.0547 -0.912164,-0.135853 -1.284849,-0.382954 -2.05788,-1.43548 -2.181432,-2.965506 -0.134759,-1.66885 -0.02783,-4.57688 0.182433,-5.308023 0.197665,-0.479037 0.637424,-1.10268 1.032492,-1.426471 0.355284,-0.291181 0.824603,-0.477855 1.327491,-0.557002 0.123006,-0.01935 0.248821,-0.02448 0.37457,-0.03105 0.05904,-0.0025 0.117539,-0.01 0.17661,-0.0097 z"
     id="path8835"
     inkscape:connector-curvature="0" /></svg>