<?xml version="1.0" encoding="UTF-8" standalone="no"?>
<!-- Generator: Adobe Illustrator 21.1.0, SVG Export Plug-In . SVG Version: 6.00 Build 0)  -->

<svg
   xmlns:dc="http://purl.org/dc/elements/1.1/"
   xmlns:cc="http://creativecommons.org/ns#"
   xmlns:rdf="http://www.w3.org/1999/02/22-rdf-syntax-ns#"
   xmlns:svg="http://www.w3.org/2000/svg"
   xmlns="http://www.w3.org/2000/svg"
   xmlns:sodipodi="http://sodipodi.sourceforge.net/DTD/sodipodi-0.dtd"
   xmlns:inkscape="http://www.inkscape.org/namespaces/inkscape"
   version="1.1"
   id="Layer_1"
   x="0px"
   y="0px"
   viewBox="0 0 108.6 108.6"
   enable-background="new 0 0 108.6 108.6"
   xml:space="preserve"
   inkscape:version="0.92.5 (2060ec1f9f, 2020-04-08)"
   sodipodi:docname="keyboard.svg"><metadata
     id="metadata11"><rdf:RDF><cc:Work
         rdf:about=""><dc:format>image/svg+xml</dc:format><dc:type
           rdf:resource="http://purl.org/dc/dcmitype/StillImage" /></cc:Work></rdf:RDF></metadata><defs
     id="defs9" /><sodipodi:namedview
     pagecolor="#ffffff"
     bordercolor="#666666"
     borderopacity="1"
     objecttolerance="10"
     gridtolerance="10"
     guidetolerance="10"
     inkscape:pageopacity="0"
     inkscape:pageshadow="2"
     inkscape:window-width="1920"
     inkscape:window-height="1022"
     id="namedview7"
     showgrid="false"
     inkscape:zoom="4.3462248"
     inkscape:cx="37.332031"
     inkscape:cy="42.746806"
     inkscape:window-x="0"
     inkscape:window-y="0"
     inkscape:window-maximized="1"
     inkscape:current-layer="Layer_1" /><path
     d="m 54.3,108.57823 0,0 C 24.330425,108.57823 0.02176913,84.269575 0.02176913,54.3 l 0,0 C 0.02176913,24.330425 24.330425,0.02176913 54.3,0.02176913 l 0,0 c 29.969575,0 54.27823,24.30865587 54.27823,54.27823087 l 0,0 c 0,29.969575 -24.308655,54.27823 -54.27823,54.27823 z"
     id="path3"
     inkscape:connector-curvature="0"
     style="fill:#f57c00" /><path
     inkscape:connector-curvature="0"
     style="clip-rule:evenodd;fill:#ffffff;fill-rule:evenodd;stroke-width:1.55465043"
     d="m 26.184859,36.944846 h 56.602864 v 35.37851 H 26.184859 Z m -0.526341,-7.074173 h 57.514913 c 3.602743,0 6.54788,2.947105 6.54788,6.549743 v 36.431211 c 0,3.602592 -2.946999,6.547722 -6.54788,6.547722 H 25.658518 c -3.602639,0 -6.549742,-2.946996 -6.549742,-6.547722 V 36.420416 c 0,-3.602638 2.947103,-6.549743 6.549742,-6.549743 z"
     id="path2" /><path
     inkscape:connector-curvature="0"
     style="fill:#ffffff;stroke-width:1.55465043"
     d="M 36.718922,40.410676 H 29.6429 v 7.220479 h 7.076022 z"
     id="path4" /><path
     inkscape:connector-curvature="0"
     style="fill:#ffffff;stroke-width:1.55465043"
     d="m 47.403723,40.410676 h -7.074126 v 7.220479 h 7.074126 z"
     id="path6" /><path
     inkscape:connector-curvature="0"
     style="fill:#ffffff;stroke-width:1.55465043"
     d="m 57.979234,40.410676 h -7.075992 v 7.220479 h 7.075992 z"
     id="path8" /><path
     inkscape:connector-curvature="0"
     style="fill:#ffffff;stroke-width:1.55465043"
     d="m 68.613198,40.410676 h -7.078014 v 7.220479 h 7.078014 z"
     id="path10" /><path
     inkscape:connector-curvature="0"
     style="fill:#ffffff;stroke-width:1.55465043"
     d="m 79.187153,40.410676 h -7.075992 v 7.220479 h 7.075992 z"
     id="path12" /><path
     inkscape:connector-curvature="0"
     style="fill:#ffffff;stroke-width:1.55465043"
     d="M 36.718922,51.096937 H 29.6429 v 7.218708 h 7.076022 z"
     id="path14" /><path
     inkscape:connector-curvature="0"
     style="fill:#ffffff;stroke-width:1.55465043"
     d="m 47.403723,51.096937 h -7.074126 v 7.218708 h 7.074126 z"
     id="path16" /><path
     inkscape:connector-curvature="0"
     style="fill:#ffffff;stroke-width:1.55465043"
     d="M 68.631698,61.638867 H 40.255285 v 7.218553 h 28.376413 z"
     id="path18" /><path
     inkscape:connector-curvature="0"
     style="fill:#ffffff;stroke-width:1.55465043"
     d="m 68.613198,51.096937 h -7.078014 v 7.218708 h 7.078014 z"
     id="path20" /><path
     inkscape:connector-curvature="0"
     style="fill:#ffffff;stroke-width:1.55465043"
     d="m 79.187153,51.096937 h -7.075992 v 7.218708 h 7.075992 z"
     id="path22" /><path
     inkscape:connector-curvature="0"
     style="fill:#ffffff;stroke-width:1.55465043"
     d="m 57.979234,51.096937 h -7.075992 v 7.218708 h 7.075992 z"
     id="path24" /></svg>