<?xml version="1.0" encoding="UTF-8" standalone="no"?>
<!-- Generator: Adobe Illustrator 21.1.0, SVG Export Plug-In . SVG Version: 6.00 Build 0)  -->

<svg
   version="1.1"
   id="Layer_1"
   x="0px"
   y="0px"
   viewBox="0 0 108.6 108.6"
   enable-background="new 0 0 108.6 108.6"
   xml:space="preserve"
   inkscape:version="1.2 (1:1.2.1+202207142221+cd75a1ee6d)"
   sodipodi:docname="app-launcher.svg"
   xmlns:inkscape="http://www.inkscape.org/namespaces/inkscape"
   xmlns:sodipodi="http://sodipodi.sourceforge.net/DTD/sodipodi-0.dtd"
   xmlns="http://www.w3.org/2000/svg"
   xmlns:svg="http://www.w3.org/2000/svg"
   xmlns:rdf="http://www.w3.org/1999/02/22-rdf-syntax-ns#"
   xmlns:cc="http://creativecommons.org/ns#"
   xmlns:dc="http://purl.org/dc/elements/1.1/"><metadata
     id="metadata11"><rdf:RDF><cc:Work
         rdf:about=""><dc:format>image/svg+xml</dc:format><dc:type
           rdf:resource="http://purl.org/dc/dcmitype/StillImage" /></cc:Work></rdf:RDF></metadata><defs
     id="defs9"><inkscape:path-effect
       effect="fillet_chamfer"
       id="path-effect2739"
       is_visible="true"
       lpeversion="1"
       nodesatellites_param="F,0,0,1,0,0,0,1 @ F,0,0,1,0,0,0,1 @ F,0,0,1,0,0,0,1 @ F,0,0,1,0,0,0,1 @ F,0,0,1,0,0,0,1 @ F,0,0,1,0,0,0,1 @ F,0,0,1,0,0,0,1 @ F,0,0,1,0,0,0,1 @ F,0,0,1,0,0,0,1 @ F,0,0,1,0,0,0,1 @ F,0,0,1,0,0,0,1 @ F,0,0,1,0,0,0,1 @ F,0,0,1,0,0,0,1 @ F,0,0,1,0,0,0,1 @ F,0,0,1,0,0,0,1 @ F,0,0,1,0,0,0,1 @ F,0,0,1,0,0,0,1 @ F,0,0,1,0,0,0,1 @ F,0,0,1,0,0,0,1 @ F,0,0,1,0,0,0,1 @ F,0,0,1,0,0,0,1 @ F,0,0,1,0,0,0,1 @ F,0,0,1,0,0,0,1 @ F,0,0,1,0,0,0,1 @ F,0,0,1,0,0,0,1 @ F,0,0,1,0,0,0,1 @ F,0,0,1,0,0,0,1 @ F,0,0,1,0,0,0,1 @ F,0,0,1,0,0,0,1 @ F,0,0,1,0,0,0,1 @ F,0,1,1,0,1,0,1 @ F,0,1,1,0,1,0,1 @ F,0,1,1,0,1,0,1 @ F,0,1,1,0,1,0,1"
       unit="px"
       method="auto"
       mode="F"
       radius="1"
       chamfer_steps="1"
       flexible="false"
       use_knot_distance="true"
       apply_no_radius="true"
       apply_with_radius="true"
       only_selected="true"
       hide_knots="false" /></defs><sodipodi:namedview
     pagecolor="#ffffff"
     bordercolor="#666666"
     borderopacity="1"
     objecttolerance="10"
     gridtolerance="10"
     guidetolerance="10"
     inkscape:pageopacity="0"
     inkscape:pageshadow="2"
     inkscape:window-width="1920"
     inkscape:window-height="1022"
     id="namedview7"
     showgrid="false"
     inkscape:zoom="4.3462248"
     inkscape:cx="7.8228811"
     inkscape:cy="56.830931"
     inkscape:window-x="0"
     inkscape:window-y="0"
     inkscape:window-maximized="1"
     inkscape:current-layer="Layer_1"
     inkscape:showpageshadow="2"
     inkscape:pagecheckerboard="0"
     inkscape:deskcolor="#d1d1d1" /><path
     d="m 54.3,108.57823 0,0 C 24.330425,108.57823 0.02176913,84.269575 0.02176913,54.3 l 0,0 C 0.02176913,24.330425 24.330425,0.02176913 54.3,0.02176913 l 0,0 c 29.969575,0 54.27823,24.30865587 54.27823,54.27823087 l 0,0 c 0,29.969575 -24.308655,54.27823 -54.27823,54.27823 z"
     id="path3"
     inkscape:connector-curvature="0"
     style="fill:#f57c00" /><path
     d="m 30.318355,83.164876 c -0.71763,-2e-6 -1.311056,-0.23461 -1.780275,-0.70383 -0.46922,-0.469219 -0.70383,-1.062645 -0.70383,-1.780275 V 49.960672 l -4.96821,3.808961 c -0.552023,0.44162 -1.159249,0.607227 -1.821677,0.496822 -0.662428,-0.110411 -1.214451,-0.44162 -1.65607,-0.993643 -0.441619,-0.552023 -0.607226,-1.159249 -0.496821,-1.821677 0.11041,-0.662428 0.441619,-1.214451 0.993642,-1.65607 l 7.949136,-6.044656 v -6.955493 c 0,-0.71763 0.23461,-1.311057 0.70383,-1.780275 0.469219,-0.46922 1.062645,-0.70383 1.780275,-0.70383 0.71763,0 1.311056,0.23461 1.780275,0.70383 0.46922,0.469218 0.70383,1.062645 0.70383,1.780275 v 3.146532 L 52.840907,24.705604 c 0.220809,-0.165607 0.455419,-0.289812 0.703829,-0.372615 0.248411,-0.0828 0.510622,-0.124205 0.786634,-0.124205 0.276012,0 0.538223,0.0414 0.786633,0.124205 0.248411,0.0828 0.483021,0.207008 0.70383,0.372615 l 33.038589,25.172264 c 0.55204,0.44162 0.869436,0.993643 0.95224,1.65607 0.0828,0.662429 -0.09655,1.269655 -0.538224,1.821678 -0.441603,0.552022 -0.979826,0.869436 -1.614664,0.95224 -0.634825,0.0828 -1.228255,-0.0966 -1.780268,-0.538223 L 80.82849,49.960672 v 30.720099 c 0,0.71763 -0.23461,1.311056 -0.70383,1.780275 -0.469219,0.46922 -1.062645,0.70383 -1.780275,0.70383 H 60.749024 a 1.000297,1.000297 44.991492 0 1 -1.000297,-1 l -0.0045,-15.172635 a 1.0014916,1.0014916 45.025684 0 0 -1.000296,-1.001194 l -8.82496,-0.01053 a 0.99910362,0.99910362 135.04269 0 0 -1.000296,0.998806 l -0.0045,15.185573 a 1.0002958,1.0002958 135.00853 0 1 -1.000297,0.999999 z"
     id="path2"
     inkscape:connector-curvature="0"
     sodipodi:nodetypes="ssscccssccsssssccsssccscsccsssccccs"
     inkscape:path-effect="#path-effect2739"
     inkscape:original-d="m 30.318355,83.164876 c -0.71763,-2e-6 -1.311056,-0.23461 -1.780275,-0.70383 -0.46922,-0.469219 -0.70383,-1.062645 -0.70383,-1.780275 V 49.960672 l -4.96821,3.808961 c -0.552023,0.44162 -1.159249,0.607227 -1.821677,0.496822 -0.662428,-0.110411 -1.214451,-0.44162 -1.65607,-0.993643 -0.441619,-0.552023 -0.607226,-1.159249 -0.496821,-1.821677 0.11041,-0.662428 0.441619,-1.214451 0.993642,-1.65607 l 7.949136,-6.044656 v -6.955493 c 0,-0.71763 0.23461,-1.311057 0.70383,-1.780275 0.469219,-0.46922 1.062645,-0.70383 1.780275,-0.70383 0.71763,0 1.311056,0.23461 1.780275,0.70383 0.46922,0.469218 0.70383,1.062645 0.70383,1.780275 v 3.146532 L 52.840907,24.705604 c 0.220809,-0.165607 0.455419,-0.289812 0.703829,-0.372615 0.248411,-0.0828 0.510622,-0.124205 0.786634,-0.124205 0.276012,0 0.538223,0.0414 0.786633,0.124205 0.248411,0.0828 0.483021,0.207008 0.70383,0.372615 l 33.038589,25.172264 c 0.55204,0.44162 0.869436,0.993643 0.95224,1.65607 0.0828,0.662429 -0.09655,1.269655 -0.538224,1.821678 -0.441603,0.552022 -0.979826,0.869436 -1.614664,0.95224 -0.634825,0.0828 -1.228255,-0.0966 -1.780268,-0.538223 L 80.82849,49.960672 v 30.720099 c 0,0.71763 -0.23461,1.311056 -0.70383,1.780275 -0.469219,0.46922 -1.062645,0.70383 -1.780275,0.70383 H 59.749024 l -0.0051,-17.172635 -10.824958,-0.01292 -0.0051,17.185573 z"
     style="fill:#ffffff;stroke-width:1.65607" /></svg>
