<?xml version="1.0" encoding="utf-8"?>
<!-- Generator: Adobe Illustrator 21.1.0, SVG Export Plug-In . SVG Version: 6.00 Build 0)  -->
<svg version="1.1" id="Layer_1" xmlns="http://www.w3.org/2000/svg" xmlns:xlink="http://www.w3.org/1999/xlink" x="0px" y="0px"
	 viewBox="0 0 108.6 108.6" enable-background="new 0 0 108.6 108.6" xml:space="preserve">
<path fill="#F57C00" d="M54.3,103.2L54.3,103.2c-27,0-48.9-21.9-48.9-48.9v0c0-27,21.9-48.9,48.9-48.9h0c27,0,48.9,21.9,48.9,48.9v0
	C103.2,81.3,81.3,103.2,54.3,103.2z"/>
<polygon fill="#FFFFFF" points="61.1,35 54.3,41.8 47.5,35 34,35 34,48.5 34,62.1 34,75.6 47.5,75.6 47.5,62.1 47.5,54.1 54.3,60.9 
	61.1,54.1 61.1,62.1 61.1,75.6 74.6,75.6 74.6,62.1 74.6,48.5 74.6,35 "/>
</svg>
