<?xml version="1.0" encoding="UTF-8" standalone="no"?>
<!-- Generator: Adobe Illustrator 21.1.0, SVG Export Plug-In . SVG Version: 6.00 Build 0)  -->

<svg
   xmlns:dc="http://purl.org/dc/elements/1.1/"
   xmlns:cc="http://creativecommons.org/ns#"
   xmlns:rdf="http://www.w3.org/1999/02/22-rdf-syntax-ns#"
   xmlns:svg="http://www.w3.org/2000/svg"
   xmlns="http://www.w3.org/2000/svg"
   xmlns:sodipodi="http://sodipodi.sourceforge.net/DTD/sodipodi-0.dtd"
   xmlns:inkscape="http://www.inkscape.org/namespaces/inkscape"
   version="1.1"
   id="Layer_1"
   x="0px"
   y="0px"
   viewBox="0 0 108.6 108.6"
   enable-background="new 0 0 108.6 108.6"
   xml:space="preserve"
   inkscape:version="0.91 r13725"
   sodipodi:docname="music-player.svg"><metadata
     id="metadata11"><rdf:RDF><cc:Work
         rdf:about=""><dc:format>image/svg+xml</dc:format><dc:type
           rdf:resource="http://purl.org/dc/dcmitype/StillImage" /></cc:Work></rdf:RDF></metadata><defs
     id="defs9" /><sodipodi:namedview
     pagecolor="#ffffff"
     bordercolor="#666666"
     borderopacity="1"
     objecttolerance="10"
     gridtolerance="10"
     guidetolerance="10"
     inkscape:pageopacity="0"
     inkscape:pageshadow="2"
     inkscape:window-width="1920"
     inkscape:window-height="1029"
     id="namedview7"
     showgrid="false"
     inkscape:zoom="8.6924495"
     inkscape:cx="48.224756"
     inkscape:cy="69.263073"
     inkscape:window-x="0"
     inkscape:window-y="0"
     inkscape:window-maximized="1"
     inkscape:current-layer="Layer_1" /><path
     d="m 54.3,108.52071 0,0 C 24.362185,108.52071 0.07929032,84.237815 0.07929032,54.3 l 0,0 C 0.07929032,24.362185 24.362185,0.07929032 54.3,0.07929032 l 0,0 c 29.937815,0 54.22071,24.28289468 54.22071,54.22070968 l 0,0 c 0,29.937815 -24.282895,54.22071 -54.22071,54.22071 z"
     id="path3"
     inkscape:connector-curvature="0"
     style="fill:#f57c00" /><path
     d="M 80.098565,37.354954 C 76.815127,31.152899 71.82916,26.774979 65.262281,24.099583 60.231142,22.319624 55.121885,21.502922 50.061166,22.397058 c -4.742747,0.608045 -8.877449,2.432179 -12.647325,5.229182 -5.958836,4.49953 -9.607104,10.458368 -11.066411,17.633292 -0.385216,1.85912 -0.364827,3.541569 -0.364827,5.472401 l 0,13.620198 c -0.02514,2.029243 -0.100974,4.622731 0.243219,6.323662 1.337698,5.107573 4.377921,8.512624 9.485494,9.850322 l 0.121608,0 0,0.243218 0,0.121608 c 0.121611,0.608045 0.364827,1.459307 1.459308,2.067352 l 0.243219,0.121608 4.621137,0 0.243218,-0.121608 c 1.580917,-0.608045 1.580917,-2.18896 1.580917,-2.918614 l 0,-0.121609 0,-9.120668 0,-16.417202 c 0,-1.702525 -0.851264,-2.553786 -2.553789,-2.553786 l -2.797003,0 c -0.608046,0 -2.43218,0 -2.675396,2.06735 L 35.832924,54.3802 c -2.432178,0.608045 -4.499529,1.702525 -6.323661,3.526659 -0.12161,-2.31057 0,-4.621139 0,-6.931708 l 0.243215,0 c 0.972873,0 0.972873,0 0.972873,-0.972871 0,-0.972871 0,-1.824134 0.121609,-2.675397 0.486435,-3.040223 1.459307,-5.837227 2.918614,-8.391014 l 0.729654,0.486435 c 0.608043,0.364828 1.337696,0.851263 1.945741,1.337699 0.486436,0.364827 1.337697,0.729653 2.31057,0 0.729653,-0.486436 1.216089,-1.09448 1.702525,-1.702525 0.121609,-0.243218 0.364825,-0.364827 0.486436,-0.608045 4.499529,-4.864356 10.215147,-6.810097 16.782029,-5.715619 4.256311,0.608044 7.904577,2.797006 10.9448,6.323664 0.486435,0.608045 1.094481,1.216089 1.702526,1.580915 0.364826,0.243219 0.729654,0.486437 1.216088,0.486437 0.364827,0 0.729654,-0.12161 1.094481,-0.364827 0.729653,-0.486436 1.337696,-0.851262 2.067351,-1.337699 l 0.851262,-0.486435 c 0.851262,1.459308 1.459306,3.040223 2.067351,4.621139 0.729655,2.18896 1.094481,4.499529 1.094481,6.931707 0,0.486436 0.243218,0.608045 0.608043,0.608045 0.243219,0 0.364827,-0.121609 0.608046,-0.121609 l 0,7.053316 c -0.851262,-0.851261 -1.702526,-1.580915 -2.797004,-2.18896 -1.094481,-0.608045 -2.310571,-1.216089 -3.526661,-1.337698 l 0,-0.243217 C 73.531685,52.920894 72.558814,52.06963 71.221116,52.06963 l -0.729652,0 -2.553788,0 c -1.580917,0.12161 -2.31057,0.851264 -2.31057,2.432179 l 0,8.026189 0,17.998117 c 0.437022,1.511671 0.352311,2.004178 1.459307,2.797004 l 4.49953,0 0.364827,0 0.243217,-0.121609 c 0.486437,-0.243217 1.459306,-0.851262 1.337698,-2.18896 l 0,-0.121609 c 3.040223,-0.729653 5.472402,-2.310568 7.296535,-4.864356 2.248654,-3.950689 2.528577,-7.911735 2.432177,-11.796064 l 0,-13.012152 c 0.151533,-4.534223 -1.1508,-9.943901 -3.161832,-13.863415 z m -41.955071,29.672572 0,-7.78297 0,-4.49953 0,-0.486434 0.243217,0 2.675397,0 0.121609,0 0,0.243217 c 0.121609,5.472401 0,11.066411 0,16.417203 l 0,9.120667 0,0.243217 0,0.486437 -3.161832,0 0,0 0,-4.134704 c 0.121609,-3.283439 0.121609,-6.445271 0.121609,-9.607103 z M 71.585943,38.449433 c -0.364827,-0.243217 -0.729654,-0.608044 -0.972872,-1.094479 -3.405049,-4.013096 -7.53975,-6.445273 -12.404108,-7.174925 -7.418144,-1.21609 -13.863414,0.97287 -18.970989,6.445271 -0.243218,0.243219 -0.364827,0.364826 -0.486435,0.608045 -0.364828,0.486435 -0.729654,0.851263 -1.094482,1.216088 -0.486434,-0.364825 -1.094479,-0.729653 -1.702522,-1.094479 0.486434,-0.729654 1.094478,-1.337699 1.580916,-1.945743 3.526657,-3.769875 7.782968,-6.202053 12.647324,-7.174926 3.961633,-0.455828 7.404642,-0.314072 11.066411,0.608046 4.864358,1.580915 8.87745,4.499527 11.917673,8.512623 -0.364827,0.364826 -0.972872,0.729654 -1.580916,1.094479 z m -0.608045,30.402226 0,11.18802 0,0.608044 -3.040222,0 0,-0.364827 0,-17.998117 0,-8.026187 0,0 0,0 2.432179,0 0.729654,0.121608 0,0.486436 c -0.121611,4.499529 -0.121611,9.242276 -0.121611,13.985023 z"
     id="path5"
     inkscape:connector-curvature="0"
     style="fill:#ffffff"
     sodipodi:nodetypes="ccccccccccccccccsccsssccccssccccccccccsscccssccsccsccscccccsccccccscccccccsccccccsccccccccccccscccccccccccs" /></svg>