<?xml version="1.0" encoding="utf-8"?>
<!-- Generator: Adobe Illustrator 21.1.0, SVG Export Plug-In . SVG Version: 6.00 Build 0)  -->
<svg version="1.1" id="Layer_1" xmlns="http://www.w3.org/2000/svg" xmlns:xlink="http://www.w3.org/1999/xlink" x="0px" y="0px"
	 viewBox="0 0 108.6 108.6" enable-background="new 0 0 108.6 108.6" xml:space="preserve">
<path fill="#F57C00" d="M54.3,103.2L54.3,103.2c-27,0-48.9-21.9-48.9-48.9v0c0-27,21.9-48.9,48.9-48.9h0c27,0,48.9,21.9,48.9,48.9v0
	C103.2,81.3,81.3,103.2,54.3,103.2z"/>
<path fill="#FFFFFF" d="M73.8,42.4L73.8,42.4l-13-12.9v0h0l0,0l0,0h-0.6v0H34.8v47.3h38.9V43.1h0V42.4z M71.9,42.4H60.8v-11
	L71.9,42.4z M41.6,40.5v-1.3h17.9v2.6H41.6V40.5z M53,69.2H41.6v-1.3v-1.3H53V69.2z M67,61v1.3H41.6V61v-1.3H67V61z M67,54.2v1.3
	H41.6v-1.3v-1.3H67V54.2z M67,47.4v1.3H41.6v-1.3v-1.3H67V47.4z"/>
</svg>
