<?xml version="1.0" encoding="UTF-8" standalone="no"?>
<!-- Generator: Adobe Illustrator 21.1.0, SVG Export Plug-In . SVG Version: 6.00 Build 0)  -->

<svg
   xmlns:dc="http://purl.org/dc/elements/1.1/"
   xmlns:cc="http://creativecommons.org/ns#"
   xmlns:rdf="http://www.w3.org/1999/02/22-rdf-syntax-ns#"
   xmlns:svg="http://www.w3.org/2000/svg"
   xmlns="http://www.w3.org/2000/svg"
   xmlns:sodipodi="http://sodipodi.sourceforge.net/DTD/sodipodi-0.dtd"
   xmlns:inkscape="http://www.inkscape.org/namespaces/inkscape"
   version="1.1"
   id="Layer_1"
   x="0px"
   y="0px"
   viewBox="0 0 108.6 108.6"
   enable-background="new 0 0 108.6 108.6"
   xml:space="preserve"
   inkscape:version="0.91 r13725"
   sodipodi:docname="notes.svg"><metadata
     id="metadata11"><rdf:RDF><cc:Work
         rdf:about=""><dc:format>image/svg+xml</dc:format><dc:type
           rdf:resource="http://purl.org/dc/dcmitype/StillImage" /></cc:Work></rdf:RDF></metadata><defs
     id="defs9" /><sodipodi:namedview
     pagecolor="#ffffff"
     bordercolor="#666666"
     borderopacity="1"
     objecttolerance="10"
     gridtolerance="10"
     guidetolerance="10"
     inkscape:pageopacity="0"
     inkscape:pageshadow="2"
     inkscape:window-width="1920"
     inkscape:window-height="1029"
     id="namedview7"
     showgrid="false"
     inkscape:zoom="6.14649"
     inkscape:cx="32.535361"
     inkscape:cy="50.206611"
     inkscape:window-x="0"
     inkscape:window-y="0"
     inkscape:window-maximized="1"
     inkscape:current-layer="Layer_1" /><path
     d="m 54.3,108.56892 0,0 C 24.335566,108.56892 0.03108209,84.264433 0.03108209,54.3 l 0,0 C 0.03108209,24.335566 24.335566,0.03108209 54.3,0.03108209 l 0,0 c 29.964434,0 54.26892,24.30448391 54.26892,54.26891791 l 0,0 c 0,29.964433 -24.304486,54.26892 -54.26892,54.26892 z"
     id="path3"
     inkscape:connector-curvature="0"
     style="fill:#f57c00" /><path
     d="m 77.959357,39.783572 0,0 -15.574189,-15.454387 0,0 0,0 0,0 0,0 -0.718808,0 0,0 -30.42957,0 0,56.666086 46.602765,0 0,-40.373089 0,0 0,-0.83861 z m -2.276227,0 -13.297962,0 0,-13.178161 13.297962,13.178161 z m -36.299841,-2.276228 0,-1.557419 21.44446,0 0,3.114839 -21.44446,0 0,-1.55742 z m 13.657366,34.383017 -13.657366,0 0,-1.557419 0,-1.557419 13.657366,0 0,3.114838 z m 16.772204,-9.823721 0,1.557419 -30.42957,0 0,-1.557419 0,-1.557418 30.42957,0 0,1.557418 z m 0,-8.146499 0,1.55742 -30.42957,0 0,-1.55742 0,-1.557418 30.42957,0 0,1.557418 z m 0,-8.146498 0,1.55742 -30.42957,0 0,-1.55742 0,-1.557419 30.42957,0 0,1.557419 z"
     id="path5"
     inkscape:connector-curvature="0"
     style="fill:#ffffff" /></svg>