<?xml version="1.0" encoding="UTF-8" standalone="no"?>
<!-- Generator: Adobe Illustrator 21.1.0, SVG Export Plug-In . SVG Version: 6.00 Build 0)  -->

<svg
   xmlns:dc="http://purl.org/dc/elements/1.1/"
   xmlns:cc="http://creativecommons.org/ns#"
   xmlns:rdf="http://www.w3.org/1999/02/22-rdf-syntax-ns#"
   xmlns:svg="http://www.w3.org/2000/svg"
   xmlns="http://www.w3.org/2000/svg"
   xmlns:sodipodi="http://sodipodi.sourceforge.net/DTD/sodipodi-0.dtd"
   xmlns:inkscape="http://www.inkscape.org/namespaces/inkscape"
   version="1.1"
   id="Layer_1"
   x="0px"
   y="0px"
   viewBox="0 0 108.6 108.6"
   enable-background="new 0 0 108.6 108.6"
   xml:space="preserve"
   inkscape:version="0.91 r13725"
   sodipodi:docname="thank-you.svg"
   inkscape:export-filename="/home/tibbi/Plocha/thank-you.png"
   inkscape:export-xdpi="471"
   inkscape:export-ydpi="471"><metadata
     id="metadata11"><rdf:RDF><cc:Work
         rdf:about=""><dc:format>image/svg+xml</dc:format><dc:type
           rdf:resource="http://purl.org/dc/dcmitype/StillImage" /></cc:Work></rdf:RDF></metadata><defs
     id="defs9" /><sodipodi:namedview
     pagecolor="#ffffff"
     bordercolor="#666666"
     borderopacity="1"
     objecttolerance="10"
     gridtolerance="10"
     guidetolerance="10"
     inkscape:pageopacity="0"
     inkscape:pageshadow="2"
     inkscape:window-width="1920"
     inkscape:window-height="1029"
     id="namedview7"
     showgrid="false"
     inkscape:zoom="2.1731124"
     inkscape:cx="55.220338"
     inkscape:cy="54.299999"
     inkscape:window-x="0"
     inkscape:window-y="0"
     inkscape:window-maximized="1"
     inkscape:current-layer="Layer_1" /><path
     fill="#F57C00"
     d="M54.3,103.2L54.3,103.2c-27,0-48.9-21.9-48.9-48.9v0c0-27,21.9-48.9,48.9-48.9h0c27,0,48.9,21.9,48.9,48.9v0  C103.2,81.3,81.3,103.2,54.3,103.2z"
     id="path3" /><path
     fill="#FFFFFF"
     d="M54.6,43.7c1.1-1.4,1.9-2.4,2.9-3.4c4.8-4.9,10-5.7,15.2-2.4c5,3.1,7.3,9.6,5.2,15.4  c-0.7,1.8-1.6,3.6-2.8,5.1c-5.1,6.2-11.3,11.2-17.9,15.6c-1.7,1.1-3.4,1.3-5.2,0.1c-6.9-4.5-13.3-9.6-18.4-16  c-3.7-4.6-4.6-9.9-1.7-15.3c4-7.4,12.8-8.8,18.9-3.1C51.9,40.7,53,42,54.6,43.7z"
     id="path5" /></svg>