<?xml version="1.0" encoding="UTF-8" standalone="no"?>
<!-- Generator: Adobe Illustrator 21.1.0, SVG Export Plug-In . SVG Version: 6.00 Build 0)  -->

<svg
   xmlns:dc="http://purl.org/dc/elements/1.1/"
   xmlns:cc="http://creativecommons.org/ns#"
   xmlns:rdf="http://www.w3.org/1999/02/22-rdf-syntax-ns#"
   xmlns:svg="http://www.w3.org/2000/svg"
   xmlns="http://www.w3.org/2000/svg"
   xmlns:sodipodi="http://sodipodi.sourceforge.net/DTD/sodipodi-0.dtd"
   xmlns:inkscape="http://www.inkscape.org/namespaces/inkscape"
   version="1.1"
   id="Layer_1"
   x="0px"
   y="0px"
   viewBox="0 0 108.6 108.6"
   enable-background="new 0 0 108.6 108.6"
   xml:space="preserve"
   inkscape:version="0.91 r13725"
   sodipodi:docname="voice-recorder.svg"><metadata
     id="metadata11"><rdf:RDF><cc:Work
         rdf:about=""><dc:format>image/svg+xml</dc:format><dc:type
           rdf:resource="http://purl.org/dc/dcmitype/StillImage" /><dc:title /></cc:Work></rdf:RDF></metadata><defs
     id="defs9" /><sodipodi:namedview
     pagecolor="#ffffff"
     bordercolor="#666666"
     borderopacity="1"
     objecttolerance="10"
     gridtolerance="10"
     guidetolerance="10"
     inkscape:pageopacity="0"
     inkscape:pageshadow="2"
     inkscape:window-width="1920"
     inkscape:window-height="1029"
     id="namedview7"
     showgrid="false"
     inkscape:zoom="6.1464901"
     inkscape:cx="11.247978"
     inkscape:cy="51.618735"
     inkscape:window-x="0"
     inkscape:window-y="0"
     inkscape:window-maximized="1"
     inkscape:current-layer="Layer_1" /><path
     d="m 54.3,108.56892 0,0 C 24.335566,108.56892 0.03108209,84.264433 0.03108209,54.3 l 0,0 C 0.03108209,24.335566 24.335566,0.03108209 54.3,0.03108209 l 0,0 c 29.964434,0 54.26892,24.30448391 54.26892,54.26891791 l 0,0 c 0,29.964433 -24.304486,54.26892 -54.26892,54.26892 z"
     id="path3"
     inkscape:connector-curvature="0"
     style="fill:#f57c00" /><path
     d="m 54.299999,61.847892 c 6.320425,0 11.38438,-5.102031 11.38438,-11.422455 l 0.03808,-22.844909 c 0,-6.320425 -5.102029,-11.422456 -11.422453,-11.422456 -6.320425,0 -11.422455,5.102031 -11.422455,11.422456 l 0,22.844909 c 0,6.320424 5.10203,11.422455 11.422458,11.422455 z m 20.17967,-11.422455 c 0,11.422455 -9.671012,19.418172 -20.17967,19.418172 -10.508658,0 -20.202125,-7.501712 -20.202125,-18.924167 0,0 -0.0017,-3.878548 -3.154214,-3.860129 -3.152459,0.01842 -3.296055,3.366124 -3.296055,3.366124 0,12.983523 10.356359,23.720631 22.84491,25.586297 l 0,12.230753 c 0,0 -0.400599,4.15081 3.829939,4.199045 4.151848,0.04733 3.78503,-4.199045 3.78503,-4.199045 l 0,-12.230753 c 12.48855,-1.827592 22.844909,-12.564699 22.844909,-25.586297 0,0 0.01508,-3.387418 -3.118481,-3.336622 -3.200511,0.05189 -3.354243,3.336622 -3.354243,3.336622 z"
     id="path4"
     style="fill:#ffffff"
     inkscape:connector-curvature="0"
     sodipodi:nodetypes="sccsssscsczcccscccsc" /></svg>